<?xml version="1.0" encoding="UTF-8" standalone="no"?>
<svg
   width="800"
   height="300"
   viewBox="0 0 211.66666 79.374983"
   version="1.1"
   id="svg8"
   inkscape:version="1.3.2 (091e20e, 2023-11-25, custom)"
   sodipodi:docname="Logo.svg"
   inkscape:export-filename="..\..\Exports\Header.png"
   inkscape:export-xdpi="77.513702"
   inkscape:export-ydpi="77.513702"
   xml:space="preserve"
   xmlns:inkscape="http://www.inkscape.org/namespaces/inkscape"
   xmlns:sodipodi="http://sodipodi.sourceforge.net/DTD/sodipodi-0.dtd"
   xmlns:xlink="http://www.w3.org/1999/xlink"
   xmlns="http://www.w3.org/2000/svg"
   xmlns:svg="http://www.w3.org/2000/svg"
   xmlns:rdf="http://www.w3.org/1999/02/22-rdf-syntax-ns#"
   xmlns:cc="http://creativecommons.org/ns#"
   xmlns:dc="http://purl.org/dc/elements/1.1/"><title
     id="title1">Radikal Bout: Card Edition logo</title><defs
     id="defs2"><inkscape:path-effect
       effect="bool_op"
       operand-path=""
       id="path-effect20"
       is_visible="false"
       lpeversion="1"
       operation="union"
       swap-operands="false"
       filltype-this="from-curve"
       filter=""
       filltype-operand="from-curve" /><inkscape:path-effect
       effect="bool_op"
       operand-path="#path11789"
       id="path-effect19"
       is_visible="true"
       lpeversion="1"
       operation="union"
       swap-operands="false"
       filltype-this="from-curve"
       filter=""
       filltype-operand="from-curve" /><rect
       x="548.43225"
       y="396.67834"
       width="91.567726"
       height="156.67833"
       id="rect12" /><inkscape:path-effect
       effect="bool_op"
       operand-path=""
       id="path-effect12"
       is_visible="false"
       lpeversion="1"
       operation="union"
       swap-operands="false"
       filltype-this="from-curve"
       filter=""
       filltype-operand="from-curve" /><filter
       id="selectable_hidder_filter"
       width="1.0573503"
       height="1.1127892"
       x="-0.02867518"
       y="-0.036812685"
       style="color-interpolation-filters:sRGB"
       inkscape:label="LPE boolean visibility"><feComposite
         id="boolops_hidder_primitive"
         result="composite1"
         operator="arithmetic"
         in2="SourceGraphic"
         in="BackgroundImage"
         k1="0"
         k2="0"
         k3="0"
         k4="0" /></filter><inkscape:path-effect
       effect="bool_op"
       operand-path=""
       id="path-effect10"
       is_visible="true"
       lpeversion="1"
       operation="union"
       swap-operands="false"
       filltype-this="from-curve"
       filter=""
       filltype-operand="from-curve" /><inkscape:path-effect
       effect="clone_original"
       css_properties=""
       attributes="style,clip-path,mask"
       linkeditem=""
       is_visible="false"
       method="d"
       allow_transforms="true"
       id="path-effect11"
       lpeversion="1" /><linearGradient
       id="linearGradient2025"><stop
         style="stop-color:#ff0000;stop-opacity:0;"
         offset="0"
         id="stop2023" /><stop
         style="stop-color:#ff0000;stop-opacity:1;"
         offset="0.69722223"
         id="stop2021" /></linearGradient><linearGradient
       xlink:href="#linearGradient2035"
       id="linearGradient2037"
       x1="-118.39011"
       y1="72.832138"
       x2="-84.61705"
       y2="102.93337"
       gradientUnits="userSpaceOnUse" /><linearGradient
       id="linearGradient2035"><stop
         style="stop-color:#ff0000;stop-opacity:0;"
         offset="0"
         id="stop2033" /><stop
         style="stop-color:#ff0000;stop-opacity:1;"
         offset="1"
         id="stop2031" /></linearGradient></defs><sodipodi:namedview
     id="base"
     pagecolor="#000000"
     bordercolor="#666666"
     borderopacity="1.0"
     inkscape:pageopacity="0"
     inkscape:pageshadow="2"
     inkscape:zoom="0.96664734"
     inkscape:cx="679.66876"
     inkscape:cy="149.48575"
     inkscape:document-units="px"
     inkscape:current-layer="layer1"
     inkscape:document-rotation="0"
     showgrid="false"
     units="px"
     inkscape:window-width="1280"
     inkscape:window-height="1001"
     inkscape:window-x="-8"
     inkscape:window-y="-8"
     inkscape:window-maximized="1"
     inkscape:snap-page="true"
     showguides="true"
     inkscape:guide-bbox="true"
     inkscape:snap-others="true"
     inkscape:snap-to-guides="false"
     inkscape:snap-nodes="true"
     inkscape:showpageshadow="false"
     inkscape:pagecheckerboard="true"
     inkscape:deskcolor="#d1d1d1"
     inkscape:lockguides="true"
     inkscape:export-bgcolor="#00000000"
     showborder="true"
     borderlayer="true"
     labelstyle="default"><sodipodi:guide
       position="237.34956,90.552101"
       orientation="1,0"
       id="guide140"
       inkscape:locked="true" /><sodipodi:guide
       position="274.22692,161.90486"
       orientation="0,-1"
       id="guide154"
       inkscape:locked="true" /><sodipodi:guide
       position="246.30303,64.110126"
       orientation="1,0"
       id="guide100"
       inkscape:locked="true" /><sodipodi:guide
       position="287.83087,164.05285"
       orientation="0,-1"
       id="guide102"
       inkscape:locked="true" /><inkscape:page
       x="0"
       y="0"
       width="211.66666"
       height="79.374985"
       id="page1"
       margin="0"
       bleed="0" /></sodipodi:namedview><metadata
     id="metadata5"><rdf:RDF><cc:Work
         rdf:about=""><dc:format>image/svg+xml</dc:format><dc:type
           rdf:resource="http://purl.org/dc/dcmitype/StillImage" /><cc:license
           rdf:resource="http://creativecommons.org/licenses/by-sa/4.0/" /><dc:description>

-RadikAlice</dc:description><dc:title>Radikal Bout: Card Edition logo</dc:title></cc:Work><cc:License
         rdf:about="http://creativecommons.org/licenses/by-sa/4.0/"><cc:permits
           rdf:resource="http://creativecommons.org/ns#Reproduction" /><cc:permits
           rdf:resource="http://creativecommons.org/ns#Distribution" /><cc:requires
           rdf:resource="http://creativecommons.org/ns#Notice" /><cc:requires
           rdf:resource="http://creativecommons.org/ns#Attribution" /><cc:permits
           rdf:resource="http://creativecommons.org/ns#DerivativeWorks" /><cc:requires
           rdf:resource="http://creativecommons.org/ns#ShareAlike" /></cc:License></rdf:RDF></metadata><g
     inkscape:groupmode="layer"
     id="layer2"
     inkscape:label="text-src"
     style="display:none"
     sodipodi:insensitive="true"
     transform="translate(-15.982942,-3.8328206)"><text
       xml:space="preserve"
       style="font-style:normal;font-variant:normal;font-weight:normal;font-stretch:normal;font-size:38.1px;line-height:1.25;font-family:Montserrat;-inkscape-font-specification:Montserrat;font-variant-ligatures:none;display:inline;stroke-width:2.2516;stroke-dasharray:none"
       x="363.65756"
       y="251.41525"
       id="text14"
       inkscape:label="EDITION"
       transform="translate(-168.46114,-144.50168)"><tspan
         sodipodi:role="line"
         id="tspan14"
         style="font-style:normal;font-variant:normal;font-weight:900;font-stretch:normal;font-size:38.1px;font-family:Montserrat;-inkscape-font-specification:'Montserrat Heavy';fill:#ffffff;stroke:#000000;stroke-width:2.2516;stroke-dasharray:none;paint-order:stroke markers fill"
         x="363.65756"
         y="251.41525"
         dx="-10 10 18.299999 0 6.79"
         rotate="10 0"
         dy="0 0"><tspan
   style="fill:#ff6600"
   id="tspan13">E</tspan>DT ON</tspan></text><text
       xml:space="preserve"
       style="font-size:38.1px;line-height:1.25;font-family:'Open Sans';-inkscape-font-specification:'Open Sans';font-variant-ligatures:none;display:inline;stroke-width:2.2516;stroke-dasharray:none;paint-order:stroke markers fill"
       x="189.59891"
       y="253.68942"
       id="text16"
       inkscape:label="CARD"
       transform="translate(-168.46114,-144.50168)"><tspan
         sodipodi:role="line"
         id="tspan16"
         style="font-style:normal;font-variant:normal;font-weight:900;font-stretch:normal;font-size:38.1px;font-family:Montserrat;-inkscape-font-specification:'Montserrat Heavy';fill:#f9f9f9;stroke:#000000;stroke-width:2.2516;stroke-dasharray:none;paint-order:stroke markers fill"
         x="189.59891"
         y="253.68942"
         dx="0 0"
         rotate="350 0"><tspan
   style="font-size:42.0687px;fill:#00ff00;stroke-width:2.2516;stroke-dasharray:none;paint-order:stroke fill markers"
   id="tspan15">C</tspan>ARD</tspan></text><text
       xml:space="preserve"
       style="font-style:normal;font-variant:normal;font-weight:900;font-stretch:normal;font-size:42.0687px;line-height:1.25;font-family:Montserrat;-inkscape-font-specification:'Montserrat Heavy';font-variant-ligatures:none;display:inline;fill:#ffffff;stroke:#000000;stroke-width:2.2516;stroke-dasharray:none;paint-order:stroke markers fill"
       x="228.34201"
       y="45.85743"
       id="text17"
       inkscape:label="BOUT"><tspan
         sodipodi:role="line"
         id="tspan17"
         style="font-style:normal;font-variant:normal;font-weight:900;font-stretch:normal;font-size:42.0687px;font-family:Montserrat;-inkscape-font-specification:'Montserrat Heavy';fill:#ffffff;stroke:#000000;stroke-width:2.2516;stroke-dasharray:none;paint-order:stroke markers fill"
         x="228.34201"
         y="45.85743">BOUT</tspan></text><text
       xml:space="preserve"
       style="font-size:19.05px;line-height:1.25;font-family:'Open Sans';-inkscape-font-specification:'Open Sans';font-variant-ligatures:none;stroke-width:1.19327;stroke-dasharray:none"
       x="144.69485"
       y="46.229698"
       id="text19"
       inkscape:label="RADIKAL"><tspan
         sodipodi:role="line"
         id="tspan19"
         style="font-style:normal;font-variant:normal;font-weight:900;font-stretch:normal;font-size:19.05px;font-family:Montserrat;-inkscape-font-specification:'Montserrat Heavy';fill:#ffffff;stroke:#000000;stroke-width:1.19327;stroke-dasharray:none;paint-order:stroke markers fill"
         x="144.69485"
         y="46.229698">RADIKAL</tspan></text></g><g
     inkscape:groupmode="layer"
     id="layer1"
     inkscape:label="text-bottom"
     style="display:inline"
     transform="translate(-184.44408,-148.3345)"><use
       x="0"
       y="0"
       xlink:href="#text1"
       id="use12" /><rect
       style="display:inline;fill:#ffffff;stroke:#000000;stroke-width:1.42727;stroke-miterlimit:15.6;stroke-dasharray:none;paint-order:stroke markers fill"
       id="rect10"
       width="22.506126"
       height="36.41568"
       x="319.4614"
       y="105.02045"
       ry="2.5341229"
       inkscape:label="card2"
       transform="rotate(15)" /><rect
       style="display:inline;fill:#ffffff;stroke:#000000;stroke-width:1.42727;stroke-miterlimit:15.6;stroke-dasharray:none;paint-order:stroke markers fill"
       id="rect9"
       width="22.506126"
       height="36.41568"
       x="132.5825"
       y="231.48166"
       ry="2.5341229"
       inkscape:label="card"
       transform="rotate(-15)" /><path
       d="m 348.96999,244.4746 v -3.86081 h 12.42174 v -7.13411 h -12.42174 v -3.44117 h 14.1423 v -7.46982 h -23.87825 v 29.37573 h 24.42381 v -7.46982 z"
       style="font-weight:900;font-size:112px;line-height:1.25;font-family:Montserrat;-inkscape-font-specification:'Montserrat Heavy';font-variant-ligatures:none;letter-spacing:0px;display:none;fill:none;stroke:#000000;stroke-width:2.25168;stroke-dasharray:none;paint-order:stroke markers fill"
       id="path4" /><path
       sodipodi:nodetypes="cccc"
       id="path7"
       d="m 283.74221,203.1638 c 4.65172,-0.48387 12.88366,-2.65996 12.88366,-2.65996 0,0 -6.92784,6.77884 -12.27483,6.27997 z"
       style="display:inline;fill:#ffffff;fill-opacity:1;stroke:#000000;stroke-width:0.68097px;stroke-linecap:butt;stroke-linejoin:miter;stroke-opacity:1" /><path
       d="m 348.96997,244.47458 v -3.86081 h 12.42174 v -7.13409 h -12.42174 v -3.44117 h 14.14232 v -7.46982 h -23.87826 v 29.37573 h 24.42381 v -7.46984 z"
       style="font-weight:900;font-size:112px;line-height:1.25;font-family:Montserrat;-inkscape-font-specification:'Montserrat Heavy';font-variant-ligatures:none;letter-spacing:0px;display:none;fill:#ffffff;fill-opacity:1;stroke:none;stroke-width:2.25168;stroke-dasharray:none;paint-order:stroke markers fill"
       id="path9" /><path
       id="path10"
       style="display:inline;fill:#ffffff;stroke:#000000;stroke-width:2.00746;stroke-miterlimit:6.6;paint-order:stroke fill markers"
       inkscape:transform-center-x="-9.022343e-06"
       inkscape:transform-center-y="-6.0101241e-06"
       d="m 225.78679,199.09096 -4.91278,7.71388 v 0 l -3.33015,-3.7524 z m -2.11668,-10.27789 -4.91278,-7.71388 v 0 l -3.33015,3.7524 z" /><path
       id="path24132"
       style="display:inline;fill:#ffffff;fill-opacity:1;stroke:#000000;stroke-width:1.13974;stroke-linecap:butt;stroke-linejoin:miter;stroke-dasharray:none;stroke-opacity:1;paint-order:stroke fill markers"
       d="m 324.20807,192.68791 c 0.0756,1.24674 0.0249,2.19803 -0.095,2.92814 h -1.85121 v 14.86957 h 1.90745 c 0.0772,0.6687 0.10104,1.49582 0.0387,2.52425 0.83863,-0.9784 1.32699,-1.83013 1.60899,-2.52425 h 1.45805 v -14.86957 h -1.31052 c -0.2448,-0.7564 -0.74703,-1.75041 -1.75652,-2.92814 z"
       inkscape:label="i" /><path
       id="path5"
       style="display:inline;fill:#ffffff;fill-opacity:1;stroke:#000000;stroke-width:1.13974;stroke-linecap:butt;stroke-linejoin:miter;stroke-dasharray:none;stroke-opacity:1;paint-order:stroke fill markers"
       d="m 354.249,192.68791 c 0.0756,1.24674 0.0249,2.19803 -0.095,2.92814 h -1.85121 v 14.86957 h 1.90745 c 0.0772,0.6687 0.10104,1.49582 0.0387,2.52425 0.83863,-0.9784 1.32699,-1.83013 1.60898,-2.52425 h 1.45805 v -14.86957 h -1.31052 c -0.2448,-0.7564 -0.74703,-1.75041 -1.75651,-2.92814 z"
       inkscape:label="i2" /><text
       xml:space="preserve"
       style="font-style:normal;font-variant:normal;font-weight:normal;font-stretch:normal;font-size:19.05px;line-height:1.25;font-family:Montserrat;-inkscape-font-specification:Montserrat;font-variant-ligatures:none;display:inline;stroke-width:1.19327;stroke-dasharray:none"
       x="290.46899"
       y="210.14081"
       id="text2"
       inkscape:label="EDITION"><tspan
         sodipodi:role="line"
         id="tspan2"
         style="font-style:normal;font-variant:normal;font-weight:900;font-stretch:normal;font-size:19.05px;font-family:Montserrat;-inkscape-font-specification:'Montserrat Heavy';fill:#ffffff;stroke:#000000;stroke-width:1.19327;stroke-dasharray:none;paint-order:stroke markers fill"
         x="290.46899"
         y="210.14081"
         dx="-10 10 18.299999 0 6.79"
         rotate="10 0"
         dy="0 0"><tspan
   style="font-size:19.05px;fill:#ff6600;stroke-width:1.19327;stroke-dasharray:none"
   id="tspan5">E</tspan>DT ON</tspan></text><text
       xml:space="preserve"
       style="font-size:19.05px;line-height:1.25;font-family:'Open Sans';-inkscape-font-specification:'Open Sans';font-variant-ligatures:none;stroke-width:1.19327;stroke-dasharray:none;paint-order:stroke markers fill"
       x="198.64392"
       y="212.41498"
       id="text1"
       inkscape:label="CARD"><tspan
         sodipodi:role="line"
         id="tspan1"
         style="font-style:normal;font-variant:normal;font-weight:900;font-stretch:normal;font-size:19.05px;font-family:Montserrat;-inkscape-font-specification:'Montserrat Heavy';fill:#f9f9f9;stroke:#000000;stroke-width:1.19327;stroke-dasharray:none;paint-order:stroke markers fill"
         x="198.64392"
         y="212.41498"
         dx="0 0"
         rotate="350 0"><tspan
   style="font-size:19.05px;fill:#00ff00;stroke-width:1.19327;stroke-dasharray:none;paint-order:stroke fill markers"
   id="tspan3">C</tspan>ARD</tspan></text><path
       id="path12097"
       style="display:none;fill:#ffffff;fill-opacity:1;stroke:#000000;stroke-width:2.2516;stroke-linecap:butt;stroke-linejoin:miter;stroke-dasharray:none;stroke-opacity:1;paint-order:stroke markers fill"
       d="m 367.4795,243.40654 c 4.27044,1.90682 12.48756,4.13824 12.48756,4.13824 0,0 -9.38911,2.40673 -13.7703,-0.6988 z m 4.89071,-18.41115 c 4.27044,1.90682 12.48756,4.13824 12.48756,4.13824 0,0 -9.38911,2.40673 -13.7703,-0.6988 z"
       sodipodi:nodetypes="cccccccc" /></g><g
     inkscape:groupmode="layer"
     id="layer4"
     inkscape:label="text-top"
     inkscape:highlight-color="#ff0000"
     transform="translate(-15.982942,-3.8328206)"><g
       id="g6167"
       transform="matrix(0.17891264,0,0,0.17891264,47.853079,11.801473)"
       style="display:inline"
       inkscape:label="bg"><path
         id="path1225-6"
         style="display:inline;fill:#ff0000;fill-opacity:1;stroke:none;stroke-width:3.85059;stroke-linecap:butt;stroke-linejoin:miter;stroke-dasharray:none;stroke-opacity:1"
         class="UnoptimicedTransforms"
         d="m -95.032298,103.78453 47.911453,-125.038607 -30.148067,0.126697 -44.274838,124.91191 z m -35.906862,0 47.911454,-125.038607 -30.148064,0.126697 -44.27484,124.91191 h 13.25572 z m 1057.63985,-125.038602 -3.21721,8.396233 -16.53033,43.140581 -28.16391,73.501788 30.14807,-0.12669 44.27483,-124.911912 z m 35.90686,0 -19.74753,51.536814 -28.16392,73.501788 30.14807,-0.12669 44.27481,-124.911912 z"
         inkscape:label="stripes"
         sodipodi:nodetypes="cccccccccccccccccccccccc" /><path
         id="path4003"
         style="display:inline;fill:#ff0000;fill-opacity:1;stroke:none;stroke-width:3.73065px;stroke-linecap:butt;stroke-linejoin:miter;stroke-opacity:1"
         inkscape:label="Border"
         d="m 23.413465,-32.708616 -10.268747,12.328331 -52.661319,0.932093 -46.418381,121.719202 h 25.687158 l -3.853175,9.81993 H 291.30219 l 6.89313,-9.81993 h 194.63202 l 43.34199,-120.531973 -149.61181,1.776022 6.63611,-16.223675 z"
         sodipodi:nodetypes="ccccccccccccc"
         inkscape:highlight-color="#ff0000"
         inkscape:export-filename="..\..\Exports\Logo-Me.png"
         inkscape:export-xdpi="77.513702"
         inkscape:export-ydpi="77.513702" /><path
         id="path19"
         style="display:inline;fill:#ff0000;fill-opacity:1;stroke:none;stroke-width:3.73065px;stroke-linecap:butt;stroke-linejoin:miter;stroke-opacity:1"
         inkscape:label="Border"
         d="m 609.03427,-32.708616 -10.26874,12.328331 -52.66129,0.932093 -46.41835,121.719202 h 25.68714 l -3.85317,9.81993 h 145.40769 l 6.89313,-9.81993 H 868.4527 l 43.34199,-120.531973 -149.61181,1.776022 6.63611,-16.223675 z"
         sodipodi:nodetypes="ccccccccccccc"
         inkscape:highlight-color="#ff0000"
         inkscape:export-filename="..\..\Exports\Logo-Me.png"
         inkscape:export-xdpi="77.513702"
         inkscape:export-ydpi="77.513702" /></g><text
       xml:space="preserve"
       style="font-style:normal;font-variant:normal;font-weight:900;font-stretch:normal;font-size:19.05px;line-height:1.25;font-family:Montserrat;-inkscape-font-specification:'Montserrat Heavy';font-variant-ligatures:none;display:inline;fill:#ffffff;stroke:#000000;stroke-width:1.19327;stroke-dasharray:none;paint-order:stroke markers fill"
       x="146.4467"
       y="26.278244"
       id="text10"
       inkscape:label="BOUT"><tspan
         sodipodi:role="line"
         id="tspan10"
         style="font-style:normal;font-variant:normal;font-weight:900;font-stretch:normal;font-size:19.05px;font-family:Montserrat;-inkscape-font-specification:'Montserrat Heavy';fill:#ffffff;stroke:#000000;stroke-width:1.19327;stroke-dasharray:none;paint-order:stroke markers fill"
         x="146.4467"
         y="26.278244">BOUT</tspan></text><path
       id="path5569"
       style="font-weight:900;font-size:112px;line-height:1.25;font-family:Montserrat;-inkscape-font-specification:'Montserrat Heavy';font-variant-ligatures:none;display:inline;fill:#ffffff;fill-opacity:1;stroke:#000000;stroke-width:1.05577;stroke-dasharray:none;stroke-opacity:1;paint-order:stroke markers fill"
       inkscape:label="RADIKAL"
       d="m 114.39006,7.9700554 -2.22312,5.2441256 -0.0119,0.02636 -5.4653,12.502595 -4.83123,-6.441467 5.50975,-6.061128 h -2.13941 l 0.678,-1.37511 -2.2071,1.37511 h -1.38855 l -4.525805,4.998144 v -4.998144 h -1.787486 l -0.48214,-2.074809 -0.70487,2.074809 h -1.5906 v 13.774347 h 4.565096 v -3.403927 l 1.042824,-1.161169 3.443711,4.565096 h 3.86229 1.50947 0.65577 c -0.26504,1.11951 -0.4811,1.942517 -0.4811,1.942517 0,0 0.77908,-0.799995 1.59473,-1.942517 h 1.44384 l 2.20969,-5.745385 v -5.17e-4 h -0.007 l 1.3379,-3.462838 0.0527,0.135393 0.0202,0.05219 v 5.17e-4 l 1.26555,3.274735 h -0.007 l 1.36013,3.536218 0.84956,2.209684 h 1.74666 c 0.81562,1.142438 1.59422,1.942517 1.59422,1.942517 0,0 -0.21551,-0.823007 -0.48059,-1.942517 h 1.94097 l -1.83142,-4.189408 -4.18992,-9.584944 -0.0114,-0.02636 -2.2686,-5.2441256 -0.0243,0.054777 z M 43.074019,13.188343 v 13.773835 h 1.16272 c 0.0151,0.754863 -0.004,1.714167 -0.078,2.935221 0.99283,-1.158302 1.52926,-2.151511 1.8154,-2.935221 h 1.74407 V 23.49934 h 1.25936 l 2.34146,3.462838 h 4.95887 0.72243 c -0.72031,1.366411 -1.33686,2.445845 -1.33686,2.445845 0,0 1.69503,-1.006758 3.12642,-2.445845 h 1.82004 l 2.20969,-5.745385 h -0.007 l 1.3379,-3.463355 5.2e-4,5.17e-4 0.0724,0.187586 1.26555,3.275252 h -0.007 l 2.20968,5.745385 h 1.46709 c 1.32171,1.217421 2.70372,2.037601 2.70372,2.037601 0,0 -0.48556,-0.850848 -1.09244,-1.984891 h 6.09678 c 1.43892,0 2.73768,-0.255185 3.84318,-0.736906 0.44221,-0.192698 0.85338,-0.422052 1.23041,-0.68523 0.56551,-0.394758 1.05433,-0.866453 1.45418,-1.409216 0.2219,-0.301185 0.40924,-0.629343 0.57464,-0.973067 0.0333,-0.06915 0.0726,-0.133823 0.10335,-0.204639 v -5.16e-4 c 0.0921,-0.211453 0.17347,-0.430275 0.24391,-0.656291 0.0705,-0.22602 0.13005,-0.459073 0.17777,-0.699182 0.048,-0.240104 0.0842,-0.487314 0.10852,-0.74104 0.0244,-0.253725 0.0367,-0.513957 0.0367,-0.780831 0,-0.266877 -0.0131,-0.527106 -0.0367,-0.780831 -0.0729,-0.761178 -0.25352,-1.462145 -0.5302,-2.096512 -0.18447,-0.422911 -0.41194,-0.816375 -0.67851,-1.178223 -0.13324,-0.18092 -0.27636,-0.353884 -0.42891,-0.518831 -0.76263,-0.824682 -1.76088,-1.447014 -2.94143,-1.837097 -0.23606,-0.07799 -0.47945,-0.146993 -0.72967,-0.206189 -0.50055,-0.11841 -1.02861,-0.198331 -1.58078,-0.238745 h -5.2e-4 c -0.27613,-0.02021 -0.55814,-0.03049 -0.84594,-0.03049 h -6.78873 v 8.197431 l -3.6065,-8.250141 h -4.56561 l -5.09788,10.666531 -2.63912,0.0072 0.0434,0.06408 2.56729,-0.0067 0.031,-0.0646 0.43305,-0.0016 -0.0279,0.06511 -0.43874,0.0016 -1.06091,2.220019 -1.50637,-2.213818 -0.0434,-0.06356 -0.7829,-1.150834 c 0.41324,-0.211532 0.78231,-0.4632 1.10329,-0.753443 0.16051,-0.145155 0.30835,-0.300123 0.44442,-0.464054 0.27209,-0.327729 0.49476,-0.692351 0.66353,-1.091406 0.1688,-0.399084 0.28398,-0.832624 0.34209,-1.298112 0.0291,-0.232746 0.0439,-0.473495 0.0439,-0.72192 0,-0.199236 -0.0102,-0.393617 -0.0284,-0.583427 -0.0564,-0.569419 -0.19636,-1.095707 -0.4129,-1.57303 -0.14438,-0.318221 -0.32288,-0.614546 -0.5333,-0.887801 -0.3156,-0.409885 -0.70319,-0.767489 -1.156,-1.067118 -0.45281,-0.299625 -0.97042,-0.541377 -1.54668,-0.719853 -0.38416,-0.118991 -0.79438,-0.210192 -1.22834,-0.271301 -0.21688,-0.03052 -0.44014,-0.05327 -0.6687,-0.06873 -0.22865,-0.01547 -0.46299,-0.02325 -0.7028,-0.02325 z m 43.25989,0.05271 v 13.773835 h 2.03709 l 0.32504,1.297078 0.416,-1.297078 h 1.86552 V 13.241053 Z m 37.924281,0.03462 v 13.774355 h 10.86187 v -3.600814 h -6.21823 V 13.276193 Z m -76.540011,3.493843 h 1.69241 c 0.15984,0 0.30895,0.0093 0.44803,0.02791 0.27818,0.03727 0.51519,0.111313 0.71159,0.218075 0.19639,0.106749 0.35226,0.246509 0.4687,0.415995 0.0582,0.08472 0.10663,0.176801 0.14521,0.275952 0.0771,0.198312 0.11524,0.424524 0.11524,0.675411 0,0.250887 -0.0381,0.477101 -0.11524,0.675411 -0.0386,0.09923 -0.0869,0.19167 -0.14521,0.276469 -0.0582,0.08474 -0.12655,0.162028 -0.20464,0.23151 -0.0781,0.06949 -0.16585,0.131094 -0.26406,0.184485 -0.0981,0.05338 -0.20653,0.09845 -0.32505,0.134876 -0.23705,0.07289 -0.51483,0.111104 -0.83457,0.111104 h -1.69241 z m 27.00559,0.09198 h 1.9482 c 0.48693,2.3e-5 0.936,0.07275 1.33532,0.214457 0.19972,0.07086 0.38665,0.159028 0.56017,0.264067 0.34712,0.210084 0.6392,0.487162 0.86455,0.82889 0.22529,0.341642 0.38376,0.747912 0.46457,1.214396 0.0404,0.233248 0.0615,0.48147 0.0615,0.744657 0,0.263186 -0.0211,0.511409 -0.0615,0.744658 -0.0808,0.466497 -0.23928,0.872721 -0.46457,1.214396 -0.11277,0.170833 -0.24203,0.325175 -0.38654,0.463537 -0.14455,0.138351 -0.30397,0.260317 -0.47749,0.365353 l -5.2e-4,5.16e-4 c -0.34698,0.209984 -0.74934,0.35257 -1.19527,0.424264 -0.22302,0.03586 -0.45672,0.05374 -0.70022,0.05374 h -1.9482 z" /><g
       id="g8126"
       inkscape:label="spikes"
       style="display:inline"
       transform="matrix(0.54448314,0,0,0.54448314,-73.853493,-77.000013)"><path
         style="fill:#ffffff;stroke:#000000;stroke-width:2.00746;stroke-miterlimit:6.6;paint-order:stroke fill markers"
         d="m 219.32811,171.62816 -4.72881,-3.12983 -4.04298,-8.20326 7.76218,4.83609 z"
         id="path21" /></g><use
       x="0"
       y="0"
       xlink:href="#text1"
       id="use10"
       style="display:none"
       transform="translate(-177.50636,-107.45978)"
       inkscape:label="use10" /><path
       sodipodi:type="star"
       style="display:inline;fill:#ffffff;stroke:#000000;stroke-width:2.23794;stroke-linecap:round;stroke-linejoin:round;stroke-miterlimit:3.5;stroke-dasharray:none"
       id="path6064"
       inkscape:flatsided="false"
       sodipodi:sides="4"
       sodipodi:cx="609.49829"
       sodipodi:cy="0"
       sodipodi:r1="19.512674"
       sodipodi:r2="4.4488897"
       sodipodi:arg1="0"
       sodipodi:arg2="0.78539816"
       inkscape:rounded="7.2858386e-17"
       inkscape:randomized="0"
       d="M 629.01097,0 612.64413,3.1458401 609.49829,19.512674 606.35245,3.1458401 589.98562,0 l 16.36683,-3.1458401 3.14584,-16.3668339 3.14584,16.3668339 z"
       transform="matrix(0.12537345,0,0,0.12537345,37.982739,26.250408)"
       inkscape:label="uppercase-a-star" /><path
       id="circle2869"
       style="display:inline;opacity:1;fill:#ffffff;stroke:#000000;stroke-width:0.624107;stroke-linecap:butt;stroke-linejoin:miter;stroke-miterlimit:6.7;stroke-dasharray:none;paint-order:stroke fill markers"
       d="m 90.213919,9.2849068 c 0.5899,0.5898956 0.5899,1.5463052 0,2.1361992 -0.5899,0.589897 -1.54632,0.589897 -2.1362,0 -0.5899,-0.589894 -1.20326,-0.85138 -1.20326,-0.85138 0,0 -0.44989,-0.256324 -0.67485,-0.384486 -0.21942,-0.125012 -0.65827,-0.3750336 -0.65827,-0.3750336 0,0 0.54272,0.03019 0.81408,0.0453 0.32892,0.01829 0.98678,0.05494 0.98678,0.05494 l -2.74822,-1.2961532 2.98235,0.4154116 -1.47415,-0.7813432 c 0,0 3.74476,0.6695856 4.11174,1.0365452 z"
       sodipodi:nodetypes="ssscacaccccs"
       inkscape:label="i-point" /></g><g
     inkscape:groupmode="layer"
     id="layer3"
     inkscape:label="Logo"
     style="display:none"
     inkscape:highlight-color="#a200b1"
     transform="translate(-206.5915,-148.3345)"><g
       id="g7379"
       inkscape:label="stroke"
       style="display:inline"
       transform="translate(6.3499992)"><path
         d="m 461.60192,183.09088 v -3.86081 h 12.42174 v -7.13411 h -12.42174 v -3.44117 h 14.1423 v -7.46982 h -23.87825 v 29.37573 h 24.42381 v -7.46982 z"
         style="font-weight:900;font-size:112px;line-height:1.25;font-family:Montserrat;-inkscape-font-specification:'Montserrat Heavy';font-variant-ligatures:none;letter-spacing:0px;display:none;fill:none;stroke:#000000;stroke-width:2.25168;stroke-dasharray:none;paint-order:stroke markers fill"
         id="path5012" /><path
         d="m 435.83524,191.23214 c 5.74924,0 10.28149,-2.09826 13.1771,-5.87513 l -6.25282,-5.5814 c -1.72059,2.18221 -3.77688,3.44117 -6.4207,3.44117 -4.1126,0 -6.88231,-2.85365 -6.88231,-7.34394 0,-4.4903 2.76971,-7.34394 6.88231,-7.34394 2.64382,0 4.70011,1.25896 6.4207,3.44116 l 6.25282,-5.58139 c -2.89561,-3.77688 -7.42786,-5.87514 -13.1771,-5.87514 -9.4422,0 -16.36647,6.33676 -16.36647,15.35931 0,9.02254 6.92427,15.3593 16.36647,15.3593 z"
         style="font-weight:900;font-size:112px;line-height:1.25;font-family:Montserrat;-inkscape-font-specification:'Montserrat Heavy';font-variant-ligatures:none;letter-spacing:0px;display:none;fill:none;stroke:#000000;stroke-width:2.25168;stroke-dasharray:none;paint-order:stroke markers fill"
         id="path5010" /></g><g
       id="g11710"
       style="display:inline;fill:#ffffff;fill-opacity:1"
       inkscape:label="fill-header"
       transform="translate(6.3499992)"><path
         d="m 435.83523,191.23214 c 5.74925,0 10.2815,-2.09826 13.17711,-5.87515 l -6.25284,-5.58139 c -1.72058,2.1822 -3.77688,3.44116 -6.42069,3.44116 -4.11261,0 -6.88232,-2.85365 -6.88232,-7.34394 0,-4.49028 2.76971,-7.34392 6.88232,-7.34392 2.64381,0 4.70011,1.25896 6.42069,3.44116 l 6.25284,-5.58139 c -2.89561,-3.77688 -7.42786,-5.87514 -13.17711,-5.87514 -9.4422,0 -16.36648,6.33676 -16.36648,15.35929 0,9.02255 6.92428,15.35932 16.36648,15.35932 z"
         style="font-weight:900;font-size:112px;line-height:1.25;font-family:Montserrat;-inkscape-font-specification:'Montserrat Heavy';font-variant-ligatures:none;letter-spacing:0px;display:none;fill:#ffffff;fill-opacity:1;stroke:none;stroke-width:2.25168;stroke-dasharray:none;paint-order:stroke markers fill"
         id="path6586" /><path
         d="m 461.6019,183.09086 v -3.86081 h 12.42174 v -7.13409 H 461.6019 v -3.44117 h 14.14232 v -7.46982 h -23.87826 v 29.37573 h 24.42381 v -7.46984 z"
         style="font-weight:900;font-size:112px;line-height:1.25;font-family:Montserrat;-inkscape-font-specification:'Montserrat Heavy';font-variant-ligatures:none;letter-spacing:0px;display:none;fill:#ffffff;fill-opacity:1;stroke:none;stroke-width:2.25168;stroke-dasharray:none;paint-order:stroke markers fill"
         id="path6588" /></g></g></svg>
