<?xml version="1.0" encoding="UTF-8" standalone="no"?>
<svg
   width="800"
   height="300"
   viewBox="0 0 211.66666 79.374983"
   version="1.1"
   id="svg8"
   inkscape:version="1.3.2 (091e20e, 2023-11-25, custom)"
   sodipodi:docname="Logo.svg"
   inkscape:export-filename="..\..\Exports\Header.png"
   inkscape:export-xdpi="77.513702"
   inkscape:export-ydpi="77.513702"
   xml:space="preserve"
   xmlns:inkscape="http://www.inkscape.org/namespaces/inkscape"
   xmlns:sodipodi="http://sodipodi.sourceforge.net/DTD/sodipodi-0.dtd"
   xmlns:xlink="http://www.w3.org/1999/xlink"
   xmlns="http://www.w3.org/2000/svg"
   xmlns:svg="http://www.w3.org/2000/svg"
   xmlns:rdf="http://www.w3.org/1999/02/22-rdf-syntax-ns#"
   xmlns:cc="http://creativecommons.org/ns#"
   xmlns:dc="http://purl.org/dc/elements/1.1/"><title
     id="title1">Radikal Bout: Card Edition logo</title><defs
     id="defs2"><linearGradient
       id="linearGradient71"
       inkscape:collect="always"><stop
         style="stop-color:#4e0000;stop-opacity:0.46296296;"
         offset="0"
         id="stop71" /><stop
         style="stop-color:#000000;stop-opacity:0.25661376;"
         offset="0.48880598"
         id="stop73" /><stop
         style="stop-color:#570000;stop-opacity:0.55291003;"
         offset="1"
         id="stop72" /></linearGradient><inkscape:path-effect
       effect="bool_op"
       operand-path=""
       id="path-effect20"
       is_visible="false"
       lpeversion="1"
       operation="union"
       swap-operands="false"
       filltype-this="from-curve"
       filter=""
       filltype-operand="from-curve" /><inkscape:path-effect
       effect="bool_op"
       operand-path="#path11789"
       id="path-effect19"
       is_visible="true"
       lpeversion="1"
       operation="union"
       swap-operands="false"
       filltype-this="from-curve"
       filter=""
       filltype-operand="from-curve" /><rect
       x="548.43225"
       y="396.67834"
       width="91.567726"
       height="156.67833"
       id="rect12" /><inkscape:path-effect
       effect="bool_op"
       operand-path=""
       id="path-effect12"
       is_visible="false"
       lpeversion="1"
       operation="union"
       swap-operands="false"
       filltype-this="from-curve"
       filter=""
       filltype-operand="from-curve" /><filter
       id="selectable_hidder_filter"
       width="1.0573503"
       height="1.1127892"
       x="-0.02867518"
       y="-0.036812685"
       style="color-interpolation-filters:sRGB"
       inkscape:label="LPE boolean visibility"><feComposite
         id="boolops_hidder_primitive"
         result="composite1"
         operator="arithmetic"
         in2="SourceGraphic"
         in="BackgroundImage"
         k1="0"
         k2="0"
         k3="0"
         k4="0" /></filter><inkscape:path-effect
       effect="bool_op"
       operand-path=""
       id="path-effect10"
       is_visible="true"
       lpeversion="1"
       operation="union"
       swap-operands="false"
       filltype-this="from-curve"
       filter=""
       filltype-operand="from-curve" /><inkscape:path-effect
       effect="clone_original"
       css_properties=""
       attributes="style,clip-path,mask"
       linkeditem=""
       is_visible="false"
       method="d"
       allow_transforms="true"
       id="path-effect11"
       lpeversion="1" /><linearGradient
       id="linearGradient2025"><stop
         style="stop-color:#ff0000;stop-opacity:0;"
         offset="0"
         id="stop2023" /><stop
         style="stop-color:#ff0000;stop-opacity:1;"
         offset="0.69722223"
         id="stop2021" /></linearGradient><linearGradient
       xlink:href="#linearGradient2035"
       id="linearGradient2037"
       x1="-118.39011"
       y1="72.832138"
       x2="-84.61705"
       y2="102.93337"
       gradientUnits="userSpaceOnUse" /><linearGradient
       id="linearGradient2035"><stop
         style="stop-color:#ff0000;stop-opacity:0;"
         offset="0"
         id="stop2033" /><stop
         style="stop-color:#ff0000;stop-opacity:1;"
         offset="1"
         id="stop2031" /></linearGradient><radialGradient
       inkscape:collect="always"
       xlink:href="#linearGradient71"
       id="radialGradient72"
       cx="167.64821"
       cy="18.876896"
       fx="167.64821"
       fy="18.876896"
       r="11.999988"
       gradientUnits="userSpaceOnUse" /></defs><sodipodi:namedview
     id="base"
     pagecolor="#000000"
     bordercolor="#666666"
     borderopacity="1.0"
     inkscape:pageopacity="0"
     inkscape:pageshadow="2"
     inkscape:zoom="1.5325"
     inkscape:cx="399.99999"
     inkscape:cy="149.7553"
     inkscape:document-units="px"
     inkscape:current-layer="layer4"
     inkscape:document-rotation="0"
     showgrid="false"
     units="px"
     inkscape:window-width="1280"
     inkscape:window-height="1001"
     inkscape:window-x="-8"
     inkscape:window-y="-8"
     inkscape:window-maximized="1"
     inkscape:snap-page="true"
     showguides="true"
     inkscape:guide-bbox="true"
     inkscape:snap-others="true"
     inkscape:snap-to-guides="false"
     inkscape:snap-nodes="true"
     inkscape:showpageshadow="false"
     inkscape:pagecheckerboard="true"
     inkscape:deskcolor="#d1d1d1"
     inkscape:lockguides="true"
     inkscape:export-bgcolor="#00000000"
     showborder="true"
     borderlayer="true"
     labelstyle="default"><sodipodi:guide
       position="237.34956,90.552101"
       orientation="1,0"
       id="guide140"
       inkscape:locked="true" /><sodipodi:guide
       position="274.22692,161.90486"
       orientation="0,-1"
       id="guide154"
       inkscape:locked="true" /><sodipodi:guide
       position="246.30303,64.110126"
       orientation="1,0"
       id="guide100"
       inkscape:locked="true" /><sodipodi:guide
       position="287.83087,164.05285"
       orientation="0,-1"
       id="guide102"
       inkscape:locked="true" /><inkscape:page
       x="0"
       y="0"
       width="211.66666"
       height="79.374985"
       id="page1"
       margin="0"
       bleed="0" /></sodipodi:namedview><metadata
     id="metadata5"><rdf:RDF><cc:Work
         rdf:about=""><dc:format>image/svg+xml</dc:format><dc:type
           rdf:resource="http://purl.org/dc/dcmitype/StillImage" /><cc:license
           rdf:resource="http://creativecommons.org/licenses/by-sa/4.0/" /><dc:description>

-RadikAlice</dc:description><dc:title>Radikal Bout: Card Edition logo</dc:title></cc:Work><cc:License
         rdf:about="http://creativecommons.org/licenses/by-sa/4.0/"><cc:permits
           rdf:resource="http://creativecommons.org/ns#Reproduction" /><cc:permits
           rdf:resource="http://creativecommons.org/ns#Distribution" /><cc:requires
           rdf:resource="http://creativecommons.org/ns#Notice" /><cc:requires
           rdf:resource="http://creativecommons.org/ns#Attribution" /><cc:permits
           rdf:resource="http://creativecommons.org/ns#DerivativeWorks" /><cc:requires
           rdf:resource="http://creativecommons.org/ns#ShareAlike" /></cc:License></rdf:RDF></metadata><g
     inkscape:groupmode="layer"
     id="layer2"
     inkscape:label="text-src"
     style="display:none"
     sodipodi:insensitive="true"
     transform="translate(-15.982942,-3.8328206)"><text
       xml:space="preserve"
       style="font-style:normal;font-variant:normal;font-weight:normal;font-stretch:normal;font-size:38.1px;line-height:1.25;font-family:Montserrat;-inkscape-font-specification:Montserrat;font-variant-ligatures:none;display:inline;stroke-width:2.2516;stroke-dasharray:none"
       x="363.65756"
       y="251.41525"
       id="text14"
       inkscape:label="EDITION"
       transform="translate(-168.46114,-144.50168)"><tspan
         sodipodi:role="line"
         id="tspan14"
         style="font-style:normal;font-variant:normal;font-weight:900;font-stretch:normal;font-size:38.1px;font-family:Montserrat;-inkscape-font-specification:'Montserrat Heavy';fill:#ffffff;stroke:#000000;stroke-width:2.2516;stroke-dasharray:none;paint-order:stroke markers fill"
         x="363.65756"
         y="251.41525"
         dx="-10 10 18.299999 0 6.79"
         rotate="10 0"
         dy="0 0"><tspan
   style="fill:#ff6600"
   id="tspan13">E</tspan>DT ON</tspan></text><text
       xml:space="preserve"
       style="font-size:38.1px;line-height:1.25;font-family:'Open Sans';-inkscape-font-specification:'Open Sans';font-variant-ligatures:none;display:inline;stroke-width:2.2516;stroke-dasharray:none;paint-order:stroke markers fill"
       x="189.59891"
       y="253.68942"
       id="text16"
       inkscape:label="CARD"
       transform="translate(-168.46114,-144.50168)"><tspan
         sodipodi:role="line"
         id="tspan16"
         style="font-style:normal;font-variant:normal;font-weight:900;font-stretch:normal;font-size:38.1px;font-family:Montserrat;-inkscape-font-specification:'Montserrat Heavy';fill:#f9f9f9;stroke:#000000;stroke-width:2.2516;stroke-dasharray:none;paint-order:stroke markers fill"
         x="189.59891"
         y="253.68942"
         dx="0 0"
         rotate="350 0"><tspan
   style="font-size:42.0687px;fill:#00ff00;stroke-width:2.2516;stroke-dasharray:none;paint-order:stroke fill markers"
   id="tspan15">C</tspan>ARD</tspan></text><text
       xml:space="preserve"
       style="font-style:normal;font-variant:normal;font-weight:900;font-stretch:normal;font-size:42.0687px;line-height:1.25;font-family:Montserrat;-inkscape-font-specification:'Montserrat Heavy';font-variant-ligatures:none;display:inline;fill:#ffffff;stroke:#000000;stroke-width:2.2516;stroke-dasharray:none;paint-order:stroke markers fill"
       x="228.34201"
       y="45.85743"
       id="text17"
       inkscape:label="BOUT"><tspan
         sodipodi:role="line"
         id="tspan17"
         style="font-style:normal;font-variant:normal;font-weight:900;font-stretch:normal;font-size:42.0687px;font-family:Montserrat;-inkscape-font-specification:'Montserrat Heavy';fill:#ffffff;stroke:#000000;stroke-width:2.2516;stroke-dasharray:none;paint-order:stroke markers fill"
         x="228.34201"
         y="45.85743">BOUT</tspan></text><text
       xml:space="preserve"
       style="font-size:19.05px;line-height:1.25;font-family:'Open Sans';-inkscape-font-specification:'Open Sans';font-variant-ligatures:none;stroke-width:1.19327;stroke-dasharray:none"
       x="144.69485"
       y="46.229698"
       id="text19"
       inkscape:label="RADIKAL"><tspan
         sodipodi:role="line"
         id="tspan19"
         style="font-style:normal;font-variant:normal;font-weight:900;font-stretch:normal;font-size:19.05px;font-family:Montserrat;-inkscape-font-specification:'Montserrat Heavy';fill:#ffffff;stroke:#000000;stroke-width:1.19327;stroke-dasharray:none;paint-order:stroke markers fill"
         x="144.69485"
         y="46.229698">RADIKAL</tspan></text></g><g
     inkscape:groupmode="layer"
     id="layer1"
     inkscape:label="text-bottom"
     style="display:inline"
     transform="translate(-184.44408,-148.3345)"><use
       x="0"
       y="0"
       xlink:href="#text1"
       id="use12" /><rect
       style="display:inline;fill:#ffffff;stroke:#000000;stroke-width:1.42727;stroke-miterlimit:15.6;stroke-dasharray:none;paint-order:stroke markers fill"
       id="rect10"
       width="22.506126"
       height="36.41568"
       x="330.19531"
       y="102.1444"
       ry="2.5341229"
       inkscape:label="card2"
       transform="rotate(15)" /><rect
       style="display:inline;fill:#ffffff;stroke:#000000;stroke-width:1.42727;stroke-miterlimit:15.6;stroke-dasharray:none;paint-order:stroke markers fill"
       id="rect9"
       width="22.506126"
       height="36.41568"
       x="157.62831"
       y="238.19284"
       ry="2.5341229"
       inkscape:label="card"
       transform="rotate(-15)" /><path
       d="m 348.96999,244.4746 v -3.86081 h 12.42174 v -7.13411 h -12.42174 v -3.44117 h 14.1423 v -7.46982 h -23.87825 v 29.37573 h 24.42381 v -7.46982 z"
       style="font-weight:900;font-size:112px;line-height:1.25;font-family:Montserrat;-inkscape-font-specification:'Montserrat Heavy';font-variant-ligatures:none;letter-spacing:0px;display:none;fill:none;stroke:#000000;stroke-width:2.25168;stroke-dasharray:none;paint-order:stroke markers fill"
       id="path4" /><path
       sodipodi:nodetypes="cccc"
       id="path7"
       d="m 294.85478,203.1638 c 4.65172,-0.48387 12.88366,-2.65996 12.88366,-2.65996 0,0 -6.92784,6.77884 -12.27483,6.27997 z"
       style="display:none;fill:#ffffff;fill-opacity:1;stroke:#000000;stroke-width:0.68097px;stroke-linecap:butt;stroke-linejoin:miter;stroke-opacity:1" /><path
       d="m 348.96997,244.47458 v -3.86081 h 12.42174 v -7.13409 h -12.42174 v -3.44117 h 14.14232 v -7.46982 h -23.87826 v 29.37573 h 24.42381 v -7.46984 z"
       style="font-weight:900;font-size:112px;line-height:1.25;font-family:Montserrat;-inkscape-font-specification:'Montserrat Heavy';font-variant-ligatures:none;letter-spacing:0px;display:none;fill:#ffffff;fill-opacity:1;stroke:none;stroke-width:2.25168;stroke-dasharray:none;paint-order:stroke markers fill"
       id="path9" /><path
       id="path10"
       style="display:none;fill:#ffffff;stroke:#000000;stroke-width:2.00746;stroke-miterlimit:6.6;paint-order:stroke fill markers"
       inkscape:transform-center-x="-9.022343e-06"
       inkscape:transform-center-y="-6.0101241e-06"
       d="m 225.78679,199.09096 -4.91278,7.71388 v 0 l -3.33015,-3.7524 z m -2.11668,-10.27789 -4.91278,-7.71388 v 0 l -3.33015,3.7524 z" /><path
       id="path5"
       style="display:inline;fill:#ffffff;fill-opacity:1;stroke:#000000;stroke-width:1.03365;stroke-linecap:butt;stroke-linejoin:miter;stroke-dasharray:none;stroke-opacity:1;paint-order:stroke fill markers"
       inkscape:label="i2"
       d="m 348.84291,194.73403 c 0.0686,1.13069 0.0226,1.99343 -0.0862,2.65558 h -1.67888 v 13.48542 h 1.72989 c 0.07,0.60645 0.0916,1.35657 0.0351,2.28928 0.76056,-0.88733 1.20347,-1.65978 1.45921,-2.28928 h 1.32232 v -13.48542 h -1.18852 c -0.22202,-0.68599 -0.6775,-1.58747 -1.59301,-2.65558 z m -23.54036,0 c 0.0686,1.13069 0.0226,1.99343 -0.0862,2.65558 h -1.67889 v 13.48542 h 1.72989 c 0.07,0.60645 0.0916,1.35657 0.0351,2.28928 0.76057,-0.88733 1.20346,-1.65978 1.45921,-2.28928 h 1.32233 v -13.48542 h -1.18853 c -0.22201,-0.68599 -0.67748,-1.58747 -1.59301,-2.65558 z"
       sodipodi:nodetypes="cccccccccccccccccccccccc" /><text
       xml:space="preserve"
       style="font-style:normal;font-variant:normal;font-weight:normal;font-stretch:normal;font-size:19.05px;line-height:1.25;font-family:Montserrat;-inkscape-font-specification:Montserrat;font-variant-ligatures:none;display:inline;stroke-width:1.19327;stroke-dasharray:none"
       x="301.58167"
       y="210.14081"
       id="text2"
       inkscape:label="EDITION"><tspan
         sodipodi:role="line"
         id="tspan2"
         style="font-style:normal;font-variant:normal;font-weight:900;font-stretch:normal;font-size:19.05px;font-family:Montserrat;-inkscape-font-specification:'Montserrat Heavy';fill:#ffffff;stroke:#000000;stroke-width:1.19327;stroke-dasharray:none;paint-order:stroke markers fill"
         x="0"
         y="0"
         dx="-10 1.84 9.2700005 9.5299997"
         rotate="10 0 0 0 0 10"
         dy="0 0 0"><tspan
   style="font-size:19.05px;fill:#00ff00;stroke-width:1.19327;stroke-dasharray:none"
   id="tspan5">E</tspan>DTON</tspan></text><text
       xml:space="preserve"
       style="font-size:19.05px;line-height:1.25;font-family:'Open Sans';-inkscape-font-specification:'Open Sans';font-variant-ligatures:none;display:inline;stroke-width:1.19327;stroke-dasharray:none;paint-order:stroke markers fill"
       x="224.57274"
       y="212.41498"
       id="text1"
       inkscape:label="CARD"><tspan
         sodipodi:role="line"
         id="tspan1"
         style="font-style:normal;font-variant:normal;font-weight:900;font-stretch:normal;font-size:19.05px;font-family:Montserrat;-inkscape-font-specification:'Montserrat Heavy';fill:#f9f9f9;stroke:#000000;stroke-width:1.19327;stroke-dasharray:none;paint-order:stroke markers fill"
         x="0"
         y="0"
         dx="0 0"
         rotate="350 0"><tspan
           style="font-size:19.05px;fill:#00ffff;stroke-width:1.19327;stroke-dasharray:none;paint-order:stroke fill markers"
           id="tspan3">C</tspan><tspan
           style="font-size:14.8167px"
           id="tspan70">ARD</tspan></tspan></text><path
       id="path12097"
       style="display:none;fill:#ffffff;fill-opacity:1;stroke:#000000;stroke-width:2.2516;stroke-linecap:butt;stroke-linejoin:miter;stroke-dasharray:none;stroke-opacity:1;paint-order:stroke markers fill"
       d="m 367.4795,243.40654 c 4.27044,1.90682 12.48756,4.13824 12.48756,4.13824 0,0 -9.38911,2.40673 -13.7703,-0.6988 z m 4.89071,-18.41115 c 4.27044,1.90682 12.48756,4.13824 12.48756,4.13824 0,0 -9.38911,2.40673 -13.7703,-0.6988 z"
       sodipodi:nodetypes="cccccccc" /></g><g
     inkscape:groupmode="layer"
     id="layer4"
     inkscape:label="text-top"
     inkscape:highlight-color="#ff0000"
     transform="translate(-15.982942,-3.8328206)"><g
       id="g6167"
       transform="matrix(0.17891264,0,0,0.17891264,47.853079,11.801473)"
       style="display:inline"
       inkscape:label="bg"><path
         id="path1225-6"
         style="display:none;fill:#ff0000;fill-opacity:1;stroke:none;stroke-width:3.85059;stroke-linecap:butt;stroke-linejoin:miter;stroke-dasharray:none;stroke-opacity:1"
         class="UnoptimicedTransforms"
         d="m -95.032298,103.78453 47.911453,-125.038607 -30.148067,0.126697 -44.274838,124.91191 z m -35.906862,0 47.911454,-125.038607 -30.148064,0.126697 -44.27484,124.91191 h 13.25572 z m 1057.63985,-125.038602 -3.21721,8.396233 -16.53033,43.140581 -28.16391,73.501788 30.14807,-0.12669 44.27483,-124.911912 z m 35.90686,0 -19.74753,51.536814 -28.16392,73.501788 30.14807,-0.12669 44.27481,-124.911912 z"
         inkscape:label="stripes"
         sodipodi:nodetypes="cccccccccccccccccccccccc" /><path
         style="display:none;fill:#ff0000;fill-opacity:1;stroke:none;stroke-width:3.73065px;stroke-linecap:butt;stroke-linejoin:miter;stroke-opacity:1"
         d="m 23.413465,-32.708616 -10.268747,12.328331 -52.661319,0.932093 -46.418381,121.719202 h 25.687158 l -3.853175,9.81993 H 291.30219 l 6.89313,-9.81993 h 194.63202 l 43.34199,-120.531973 -149.61181,1.776022 6.63611,-16.223675 z"
         id="path4003" /><path
         style="display:inline;fill:#ff0000;fill-opacity:1;stroke:none;stroke-width:3.73065px;stroke-linecap:butt;stroke-linejoin:miter;stroke-opacity:1"
         d="m 609.03427,-32.708616 -10.26874,12.328331 -52.66129,0.932093 -46.41835,121.719202 h 25.68714 l -3.85317,9.81993 h 145.40769 l 6.89313,-9.81993 H 868.4527 l 43.34199,-120.531973 -149.61181,1.776022 6.63611,-16.223675 z"
         id="path19" /></g><text
       xml:space="preserve"
       style="font-style:normal;font-variant:normal;font-weight:900;font-stretch:normal;font-size:19.05px;line-height:1.25;font-family:Montserrat;-inkscape-font-specification:'Montserrat Heavy';font-variant-ligatures:none;display:inline;fill:#ffffff;stroke:#000000;stroke-width:1.19327;stroke-dasharray:none;paint-order:stroke markers fill"
       x="146.4467"
       y="26.278244"
       id="text10"
       inkscape:label="BOUT"><tspan
         sodipodi:role="line"
         id="tspan10"
         style="font-style:normal;font-variant:normal;font-weight:900;font-stretch:normal;font-size:19.05px;font-family:Montserrat;-inkscape-font-specification:'Montserrat Heavy';fill:#ffffff;stroke:#000000;stroke-width:1.19327;stroke-dasharray:none;paint-order:stroke markers fill"
         x="146.4467"
         y="26.278244">BOUT</tspan></text><path
       id="path5569"
       style="font-weight:900;font-size:112px;line-height:1.25;font-family:Montserrat;-inkscape-font-specification:'Montserrat Heavy';font-variant-ligatures:none;display:none;fill:#ffffff;fill-opacity:1;stroke:#000000;stroke-width:1.05577;stroke-dasharray:none;stroke-opacity:1;paint-order:stroke markers fill"
       inkscape:label="RADIKAL"
       d="m 114.38984,7.9700353 -2.22312,5.2441237 -0.0119,0.02635 -5.4653,12.502594 -4.83123,-6.441466 5.50974,-6.061128 H 102.311 l -4.525826,4.998144 V 13.240509 H 93.220079 V 27.01486 h 4.565095 v -3.403926 l 1.04283,-1.161169 3.443716,4.565095 h 3.8623 1.50947 0.65577 c -0.26504,1.119508 -0.48111,1.942517 -0.48111,1.942517 0,0 0.77909,-0.799997 1.59474,-1.942517 h 1.44384 l 2.20968,-5.745385 v -5.17e-4 h -0.007 l 1.3379,-3.462837 0.0527,0.135392 0.0207,0.05219 v 5.16e-4 l 1.26555,3.274735 h -0.007 l 1.36012,3.536218 0.84956,2.209684 h 1.74667 c 0.81562,1.142436 1.59421,1.942517 1.59421,1.942517 0,0 -0.21551,-0.823009 -0.48059,-1.942517 h 1.94097 l -1.83141,-4.189408 -4.18993,-9.584943 -0.0114,-0.02635 -2.26859,-5.2441237 -0.0243,0.054777 z m -72.966354,4.2563097 1.650306,2.472478 v 9.935826 l -0.730247,3.204344 2.011305,-0.876838 h 3.363102 v -3.462837 h 1.259871 l 2.341459,3.462837 h 4.95887 0.72192 c -0.72031,1.366409 -1.336353,2.445846 -1.336353,2.445846 0,0 1.695036,-1.006761 3.126424,-2.445846 h 1.820044 l 2.209684,-5.745385 h -0.0072 l 1.337903,-3.463354 5.16e-4,5.17e-4 0.07235,0.187585 1.265556,3.275252 h -0.0067 l 2.209684,5.745385 h 1.466577 c 1.321708,1.217419 2.704227,2.037602 2.704227,2.037602 0,0 -0.485561,-0.850851 -1.092439,-1.984892 h 6.096785 c 1.438916,0 2.737677,-0.255185 3.843175,-0.736906 0.44221,-0.192696 0.853386,-0.422051 1.230416,-0.685229 0.565508,-0.394758 1.054325,-0.866455 1.454175,-1.409216 0.221898,-0.301185 0.409242,-0.629345 0.574642,-0.973067 0.0333,-0.06915 0.0726,-0.133823 0.103352,-0.204639 v -5.17e-4 c 0.0921,-0.211451 0.173473,-0.430274 0.243913,-0.65629 0.0705,-0.22602 0.130047,-0.459075 0.177767,-0.699182 0.048,-0.240104 0.0842,-0.487314 0.10852,-0.74104 0.0244,-0.253725 0.03669,-0.513957 0.03669,-0.780831 0,-0.266877 -0.01309,-0.527106 -0.03669,-0.780831 -0.0729,-0.761176 -0.25352,-1.462147 -0.5302,-2.096512 -0.184468,-0.422911 -0.411941,-0.816375 -0.678511,-1.178223 -0.13324,-0.18092 -0.276366,-0.353884 -0.428914,-0.518831 -0.76263,-0.82468 -1.760875,-1.447016 -2.941423,-1.837097 -0.236058,-0.07799 -0.479451,-0.146993 -0.729671,-0.206189 -0.500548,-0.11841 -1.028612,-0.198331 -1.580782,-0.238745 h -5.16e-4 c -0.27613,-0.02021 -0.558145,-0.03049 -0.845943,-0.03049 h -6.788733 v 8.197431 L 66.4719,13.18832 h -4.565613 l -5.097879,10.666531 -2.639115,0.0072 0.04289,0.06408 h -0.0026 l -0.04289,-0.06356 -0.782898,-1.150834 c 0.41324,-0.21153 0.782312,-0.463199 1.103292,-0.753442 0.16051,-0.145155 0.308347,-0.300123 0.444417,-0.464054 0.27209,-0.327729 0.494756,-0.692353 0.663526,-1.091406 0.168798,-0.399084 0.283471,-0.832626 0.341581,-1.298112 0.0291,-0.232746 0.04393,-0.473495 0.04393,-0.72192 0,-0.199236 -0.01022,-0.393617 -0.02842,-0.583427 -0.0564,-0.569417 -0.196355,-1.095709 -0.412895,-1.57303 -0.14438,-0.318221 -0.322881,-0.614546 -0.533301,-0.887801 -0.315598,-0.409885 -0.703193,-0.767491 -1.156001,-1.067118 -0.45281,-0.299625 -0.970416,-0.541377 -1.546676,-0.719853 -0.384158,-0.118991 -0.79439,-0.210192 -1.228348,-0.271301 -0.21688,-0.03052 -0.440135,-0.05327 -0.668693,-0.06873 -0.22865,-0.01547 -0.46299,-0.02325 -0.7028,-0.02325 h -5.201749 z m 44.910192,1.014686 v 13.773834 h 4.643644 V 13.241031 Z m 37.924292,0.03462 v 13.774351 h 10.86187 v -3.600813 h -6.21822 V 13.276171 Z m -76.540018,3.493843 h 1.692403 c 0.15984,0 0.308956,0.0093 0.448034,0.02791 0.27818,0.03727 0.515185,0.111313 0.711585,0.218075 0.19639,0.106749 0.352265,0.246509 0.468705,0.415995 0.0582,0.08472 0.106631,0.176801 0.145211,0.275952 0.0771,0.198312 0.115238,0.424524 0.115238,0.675411 0,0.250887 -0.0381,0.477101 -0.115238,0.675411 -0.0386,0.09923 -0.0869,0.19167 -0.145211,0.276469 -0.0582,0.08474 -0.126549,0.162028 -0.204639,0.23151 -0.0781,0.06949 -0.165856,0.131094 -0.264066,0.184485 -0.0981,0.05338 -0.206525,0.09845 -0.325045,0.134876 -0.23705,0.07289 -0.514834,0.111104 -0.834574,0.111104 h -1.692403 z m 27.005583,0.09198 h 1.948202 c 0.486928,2.3e-5 0.936,0.07275 1.335318,0.214457 0.19972,0.07086 0.386653,0.159028 0.560173,0.264067 0.34712,0.210084 0.639197,0.487162 0.864547,0.82889 0.225288,0.34164 0.383761,0.747912 0.464571,1.214396 0.0404,0.233246 0.0615,0.48147 0.0615,0.744657 0,0.263186 -0.0211,0.51141 -0.0615,0.744657 -0.0808,0.466497 -0.239283,0.872723 -0.464571,1.214396 -0.11277,0.170833 -0.24203,0.325176 -0.38654,0.463538 -0.14455,0.138351 -0.30397,0.260316 -0.47749,0.365352 l -5.17e-4,5.17e-4 c -0.34698,0.209984 -0.749346,0.352569 -1.195276,0.424263 -0.22302,0.03586 -0.456717,0.05374 -0.700215,0.05374 H 74.723535 Z M 56.764427,23.91944 h 0.01292 l -5.17e-4,5.17e-4 z"
       sodipodi:nodetypes="cccccccccccccccccccccccccccccccccccccccccccccccccccccccccccccccccccssssccccccscsccssccsccccccccccccccscccsccsscccccccccccccccscsscsscsccsccccccssssccccsscccccc" /><g
       id="g8126"
       inkscape:label="spikes"
       style="display:inline"
       transform="matrix(0.54448314,0,0,0.54448314,-73.853493,-77.000013)" /><use
       x="0"
       y="0"
       xlink:href="#text1"
       id="use10"
       style="display:none"
       transform="translate(-203.43569,-107.45978)"
       inkscape:label="use10" /><path
       sodipodi:type="star"
       style="display:inline;fill:#ffffff;stroke:none;stroke-width:2.23794;stroke-linecap:round;stroke-linejoin:round;stroke-miterlimit:3.5;stroke-dasharray:none"
       id="path6064"
       inkscape:flatsided="false"
       sodipodi:sides="4"
       sodipodi:cx="609.49829"
       sodipodi:cy="0"
       sodipodi:r1="19.512674"
       sodipodi:r2="4.4488897"
       sodipodi:arg1="0"
       sodipodi:arg2="0.78539816"
       inkscape:rounded="7.2858386e-17"
       inkscape:randomized="0"
       d="M 629.01097,0 612.64413,3.1458401 609.49829,19.512674 606.35245,3.1458401 589.98562,0 l 16.36683,-3.1458401 3.14584,-16.3668339 3.14584,16.3668339 z"
       transform="matrix(0.12537345,0,0,0.12537345,37.982739,27.837909)"
       inkscape:label="uppercase-a-star" /><path
       id="circle2869"
       style="display:inline;opacity:1;fill:#ffffff;stroke:#000000;stroke-width:0.624107;stroke-linecap:butt;stroke-linejoin:miter;stroke-miterlimit:6.7;stroke-dasharray:none;paint-order:stroke fill markers"
       d="m 90.213919,11.401574 c 0.5899,0.589896 0.5899,1.546306 0,2.1362 -0.5899,0.589897 -1.54632,0.589897 -2.1362,0 -0.5899,-0.589894 -1.20326,-0.85138 -1.20326,-0.85138 0,0 -0.44989,-0.256324 -0.67485,-0.384486 -0.21942,-0.125012 -0.65827,-0.375034 -0.65827,-0.375034 0,0 0.54272,0.03019 0.81408,0.0453 0.32892,0.01829 0.98678,0.05494 0.98678,0.05494 l -2.74822,-1.296154 2.98235,0.415412 -1.47415,-0.781344 c 0,0 3.74476,0.669586 4.11174,1.036546 z"
       sodipodi:nodetypes="ssscacaccccs"
       inkscape:label="i-point" /><path
       style="fill:#ff0000;stroke:#000000;stroke-width:0.264583px;stroke-linecap:butt;stroke-linejoin:miter;stroke-opacity:1"
       d="m 40.910625,138.52977 -0.787191,-15.13154 1.399449,-2.36157 h 43.557845 l 3.148761,2.2741 23.353301,-0.78719 3.0613,-5.42286 7.69696,12.9449 0.0875,-7.52204 7.08471,-0.61225 0.0875,10.67079 5.8602,0.0874 0.0875,6.03512 -11.45799,0.2624 -2.79889,0.96212 -3.56015,-1.43003 -1.01886,-2.4136 -3.00847,-2.79429 -3.79748,6.05478 -6.98281,0.23328 -2.973827,-2.44904 -3.411156,2.7989 -24.140493,-1.39945 0.437327,1.48692 -4.198347,-0.43733 -4.110881,-2.5365 -3.586089,1.39945 -4.898068,1.57437 -1.486916,0.0875 z"
       id="path61"
       sodipodi:nodetypes="cccccccccccccccccccccccccccccc" /><path
       style="fill:#ffffff;stroke:none;stroke-width:0.264583px;stroke-linecap:butt;stroke-linejoin:miter;stroke-opacity:1"
       d="m 86.983855,122.27075 1.484338,0.80402 1.979121,-0.24739 1.360646,-3.71085 -8.534955,-1.54618 2.96868,5.50442 z"
       id="path69"
       sodipodi:nodetypes="ccccccc" /><path
       style="fill:#ffffff;stroke:#000000;stroke-width:0.264583px;stroke-linecap:butt;stroke-linejoin:miter;stroke-opacity:1"
       d="m 113.20719,138.22741 1.1751,1.91727 1.48434,-1.54619 1.2988,-2.10281 -3.40162,-3.95824 -2.41205,4.9478 z"
       id="path70" /><path
       id="path60"
       style="fill:#000000;stroke-width:0.624152;stroke-miterlimit:15.6;paint-order:stroke fill markers"
       d="m 114.30096,110.35757 -2.96726,5.89938 -35.331894,2.8e-4 -4.377539,5.2917 -5.597795,-7.4083 -4.723139,4e-5 -6.297516,7.40838 -7.185418,-5.29163 -6.122751,5e-5 -5.708694,-1.3994 2.011763,5.21622 v 16.7938 l -1.136882,4.0349 5.971211,-0.52503 h 54.48504 l 2.192631,-2.3704 2.268083,2.3704 h 3.50469 7.98763 l 1.22473,3.32383 1.31206,-3.32383 h 21.27054 v -7.18354 -2.01177 l -6.20996,-0.0563 -0.22014,-14.74225 -2.35283,-0.12661 h -3.76101 l -7.15047,-0.009 z m 0.0889,8.03362 0.0248,0.0548 0.0243,-0.0548 2.26859,5.24412 0.0114,0.0264 4.18992,9.58494 1.83142,4.18941 h -1.94097 c 0.26508,1.11951 0.48059,1.94252 0.48059,1.94252 0,0 -0.7786,-0.80008 -1.59422,-1.94252 h -1.74666 l -0.84956,-2.20969 -1.36012,-3.53621 h 0.007 l -1.26555,-3.27474 v -5.1e-4 l -0.0207,-0.0522 -0.0527,-0.13539 -1.3379,3.46284 h 0.007 v 5.1e-4 l -2.20968,5.74539 h -1.44384 c -0.81565,1.14252 -1.59474,1.94252 -1.59474,1.94252 0,0 0.21607,-0.82301 0.48111,-1.94252 h -0.65577 -1.50947 -3.8623 l -3.443716,-4.5651 -1.04283,1.16117 v 3.40393 h -4.565095 v -13.77435 h 4.565095 v 4.99814 l 4.525826,-4.99814 h 5.05705 l -5.50974,6.06113 4.83123,6.44146 5.4653,-12.50259 0.0119,-0.0264 z m -28.287672,0.27802 c 0,0 3.744913,0.66967 4.111893,1.03663 0.589895,0.5899 0.589895,1.5464 0,2.1363 -0.5899,0.5899 -1.546424,0.5899 -2.136304,0 -0.589895,-0.5899 -1.203544,-0.85163 -1.203544,-0.85163 0,0 -0.449417,-0.2563 -0.674377,-0.38447 -0.21942,-0.12501 -0.658358,-0.37465 -0.658358,-0.37465 l 0.813904,0.045 c 0.32892,0.0183 0.98702,0.0553 0.98702,0.0553 l -2.748669,-1.29656 2.982763,0.41548 z m -44.678922,3.97805 3.078365,0.9617 h 5.201749 c 0.23981,0 0.47415,0.008 0.7028,0.0238 0.228552,0.0154 0.451813,0.0382 0.668693,0.0687 0.433952,0.0611 0.844196,0.15178 1.228348,0.27078 0.57626,0.17847 1.093866,0.42075 1.546676,0.72037 0.452802,0.29963 0.840409,0.65671 1.156001,1.0666 0.21042,0.27325 0.388921,0.56958 0.533301,0.8878 0.21654,0.47732 0.356495,1.00367 0.412895,1.57303 0.0182,0.18981 0.02842,0.38419 0.02842,0.58343 0,0.24842 -0.01483,0.48969 -0.04393,0.72244 -0.05811,0.46548 -0.172789,0.8985 -0.341581,1.29759 -0.16877,0.39905 -0.391436,0.76421 -0.663526,1.09193 -0.13607,0.16394 -0.283907,0.31837 -0.444417,0.46353 -0.32098,0.29024 -0.690052,0.54243 -1.103292,0.75396 l 0.782898,1.15084 0.04289,0.0636 h 0.0026 l -0.04289,-0.0641 2.639115,-0.007 5.097879,-10.66654 h 4.565613 l 3.606497,8.25015 v -8.19744 h 6.788733 c 0.287792,0 0.569813,0.0103 0.845943,0.0305 h 5.16e-4 c 0.55217,0.0404 1.08024,0.12137 1.580782,0.23978 0.25022,0.0592 0.493619,0.12767 0.729671,0.20567 1.180542,0.39008 2.178793,1.01196 2.941423,1.83658 0.152542,0.16495 0.295674,0.33843 0.428914,0.51935 0.26657,0.36184 0.494049,0.75534 0.678511,1.17822 0.27668,0.63436 0.457305,1.33585 0.5302,2.09703 0.0236,0.25373 0.03669,0.51397 0.03669,0.78083 0,0.26688 -0.01229,0.52608 -0.03669,0.7798 -0.02432,0.25373 -0.06052,0.50094 -0.10852,0.74104 -0.04772,0.24011 -0.107267,0.47316 -0.177767,0.69918 -0.07044,0.22602 -0.151813,0.4449 -0.243913,0.65629 v 10e-4 c -0.03075,0.0708 -0.07005,0.13554 -0.103352,0.20464 -0.1654,0.34372 -0.35275,0.67187 -0.574642,0.97306 -0.39985,0.54276 -0.888673,1.01395 -1.454175,1.4087 -0.37703,0.26318 -0.788206,0.49254 -1.230416,0.68523 -1.105492,0.48172 -2.404271,0.73743 -3.843175,0.73743 h -6.096785 c 0.606872,1.13401 1.092439,1.98489 1.092439,1.98489 0,0 -1.382525,-0.82021 -2.704227,-2.0376 h -1.466577 l -2.209684,-5.74591 h 0.0067 l -1.265556,-3.27525 -0.07235,-0.18707 -5.16e-4,-5.1e-4 -1.337903,3.46283 h 0.0072 l -2.209684,5.74591 h -1.820044 c -1.431382,1.43905 -3.126424,2.44532 -3.126424,2.44532 0,0 0.616043,-1.07894 1.336353,-2.44532 h -0.72192 -4.95887 l -2.341459,-3.46284 h -1.259871 v 3.46284 H 44.35485 l -2.011246,0.87694 0.730188,-3.20497 v -9.93531 z m 44.910432,1.01492 h 4.643644 v 13.77384 h -4.643644 z m 37.924292,0.0346 4.64365,5.1e-4 v 10.17303 h 6.21822 v 3.60081 h -10.86187 z m -76.540018,3.49384 v 3.22719 h 1.692403 c 0.31974,0 0.597524,-0.0382 0.834574,-0.1111 0.11852,-0.0365 0.226945,-0.0815 0.325045,-0.13488 0.09821,-0.0534 0.185966,-0.11498 0.264066,-0.18448 0.07809,-0.0695 0.146439,-0.14681 0.204639,-0.23151 0.05831,-0.0848 0.106611,-0.17727 0.145211,-0.27647 0.07714,-0.19831 0.115238,-0.42452 0.115238,-0.67541 0,-0.25089 -0.03814,-0.4771 -0.115238,-0.67541 -0.03858,-0.0992 -0.08701,-0.19125 -0.145211,-0.27595 -0.11644,-0.16949 -0.272315,-0.30925 -0.468705,-0.416 -0.1964,-0.10676 -0.433405,-0.18077 -0.711585,-0.21807 -0.139072,-0.0189 -0.288194,-0.0279 -0.448034,-0.0279 z m 27.005583,0.092 v 6.53294 h 1.948202 c 0.243494,0 0.477195,-0.0179 0.700215,-0.0538 0.44593,-0.0717 0.848296,-0.21427 1.195276,-0.42426 l 5.17e-4,-5.2e-4 c 0.17352,-0.10504 0.33294,-0.227 0.47749,-0.36535 0.14451,-0.13837 0.27377,-0.29271 0.38654,-0.46354 0.225284,-0.34164 0.383771,-0.74789 0.464571,-1.21439 0.0404,-0.23325 0.0615,-0.48147 0.0615,-0.74466 0,-0.26318 -0.0211,-0.51142 -0.0615,-0.74466 -0.08081,-0.46649 -0.239287,-0.87275 -0.464571,-1.21439 -0.22535,-0.34173 -0.517427,-0.6188 -0.864547,-0.82889 -0.17352,-0.10504 -0.360453,-0.19317 -0.560173,-0.26407 -0.399314,-0.14176 -0.848394,-0.21444 -1.335318,-0.21446 z m 39.674055,6.94222 0.3943,2.05207 2.05207,0.39429 -2.05207,0.39481 -0.3943,2.05207 -0.39429,-2.05207 -2.05207,-0.39481 2.05207,-0.39429 z"
       sodipodi:nodetypes="cccccccccccccccccccccccccccccccccccccccccccccccccccccccccccccccccccccccccssscsccccccccscccscscscsccccccccccccsccssscscsccccccsssscccccccccccccccccccccccccccccccccccccccsccscssssscscccscccccssssssccccccccccc" /><path
       id="path17"
       style="font-weight:900;font-size:112px;line-height:1.25;font-family:Montserrat;-inkscape-font-specification:'Montserrat Heavy';font-variant-ligatures:none;display:inline;fill:none;fill-opacity:1;stroke:#000000;stroke-width:1.05577;stroke-dasharray:none;stroke-opacity:1;paint-order:stroke markers fill"
       inkscape:label="RADIKAL"
       d="m 114.38984,85.582584 -2.22312,5.24413 -0.0119,0.0263 -5.4653,12.502556 -4.83123,-6.441452 5.50974,-6.061104 H 102.311 l -4.525826,4.99813 v -4.99813 h -4.565095 v 13.774306 h 4.565095 v -3.40392 l 1.04283,-1.16117 3.443716,4.56509 h 3.8623 1.50947 0.65577 c -0.26504,1.11951 -0.48111,1.94252 -0.48111,1.94252 0,0 0.77909,-0.8 1.59474,-1.94252 h 1.44384 l 2.20968,-5.745371 v -5.2e-4 h -0.007 l 1.3379,-3.462822 0.0527,0.1354 0.0207,0.0522 v 5.1e-4 l 1.26555,3.274722 h -0.007 l 1.36012,3.536211 0.84956,2.20968 h 1.74667 c 0.81562,1.14244 1.59421,1.94252 1.59421,1.94252 0,0 -0.21551,-0.82301 -0.48059,-1.94252 h 1.94097 l -1.83141,-4.18941 -4.18993,-9.584906 -0.0114,-0.0263 -2.26859,-5.24412 -0.0243,0.0548 z m -72.966354,4.256316 1.650306,2.472475 v 9.935785 l -0.730247,3.20435 2.011305,-0.87684 h 3.363102 v -3.46284 h 1.259871 l 2.341459,3.46284 h 4.95887 0.72192 c -0.72031,1.36641 -1.336353,2.44584 -1.336353,2.44584 0,0 1.695036,-1.00676 3.126424,-2.44584 h 1.820044 l 2.209684,-5.745381 h -0.0072 l 1.337903,-3.463332 5.16e-4,5.2e-4 0.07235,0.18758 1.265556,3.275232 h -0.0067 l 2.209684,5.745381 h 1.466577 c 1.321708,1.21742 2.704227,2.0376 2.704227,2.0376 0,0 -0.485561,-0.85085 -1.092439,-1.98489 h 6.096785 c 1.438916,0 2.737677,-0.25519 3.843175,-0.73691 0.44221,-0.19269 0.853386,-0.42205 1.230416,-0.68523 0.565508,-0.39475 1.054325,-0.86645 1.454175,-1.40921 0.221898,-0.30119 0.409242,-0.62935 0.574642,-0.97307 0.0333,-0.0691 0.0726,-0.13382 0.103352,-0.20464 v -5.2e-4 c 0.0921,-0.21145 0.173473,-0.43027 0.243913,-0.656287 0.0705,-0.22602 0.130047,-0.45907 0.177767,-0.699177 0.048,-0.2401 0.0842,-0.487307 0.10852,-0.741037 0.0244,-0.253717 0.03669,-0.513947 0.03669,-0.780824 0,-0.26688 -0.01309,-0.527097 -0.03669,-0.780827 -0.0729,-0.761174 -0.25352,-1.462141 -0.5302,-2.096498 -0.184468,-0.422907 -0.411941,-0.816374 -0.678511,-1.178214 -0.13324,-0.180917 -0.276366,-0.353887 -0.428914,-0.518837 -0.76263,-0.824674 -1.760875,-1.447011 -2.941423,-1.837088 -0.236058,-0.078 -0.479451,-0.147 -0.729671,-0.20619 -0.500548,-0.11841 -1.028612,-0.198337 -1.580782,-0.238747 h -5.16e-4 c -0.27613,-0.0202 -0.558145,-0.0305 -0.845943,-0.0305 h -6.788733 v 8.197392 L 66.4719,90.800874 h -4.565613 l -5.097879,10.666486 -2.639115,0.007 0.04289,0.0641 h -0.0026 l -0.04289,-0.0636 -0.782898,-1.15083 c 0.41324,-0.21153 0.782312,-0.463197 1.103292,-0.753437 0.16051,-0.145157 0.308347,-0.300117 0.444417,-0.464057 0.27209,-0.327717 0.494756,-0.692347 0.663526,-1.091394 0.168798,-0.399087 0.283471,-0.832624 0.341581,-1.298101 0.0291,-0.23275 0.04393,-0.473497 0.04393,-0.721917 0,-0.19924 -0.01022,-0.393617 -0.02842,-0.583427 -0.0564,-0.569417 -0.196355,-1.095704 -0.412895,-1.573021 -0.14438,-0.318217 -0.322881,-0.614547 -0.533301,-0.887794 -0.315598,-0.409887 -0.703193,-0.767497 -1.156001,-1.067124 -0.45281,-0.29962 -0.970416,-0.541377 -1.546676,-0.719847 -0.384158,-0.119 -0.79439,-0.210197 -1.228348,-0.271307 -0.21688,-0.0305 -0.440135,-0.0533 -0.668693,-0.0687 -0.22865,-0.0155 -0.46299,-0.0232 -0.7028,-0.0232 h -5.201749 z m 44.910192,1.014684 v 13.773796 h 4.643644 V 90.853584 Z m 37.924292,0.0346 V 104.6625 h 10.86187 v -3.60082 h -6.21822 V 90.888704 Z m -76.540018,3.493839 h 1.692403 c 0.15984,0 0.308956,0.009 0.448034,0.0279 0.27818,0.0373 0.515185,0.11131 0.711585,0.21807 0.19639,0.106747 0.352265,0.246507 0.468705,0.415997 0.0582,0.0847 0.106631,0.1768 0.145211,0.275947 0.0771,0.19831 0.115238,0.42452 0.115238,0.675407 0,0.25089 -0.0381,0.477097 -0.115238,0.675407 -0.0386,0.0992 -0.0869,0.191667 -0.145211,0.276467 -0.0582,0.0847 -0.126549,0.16203 -0.204639,0.23151 -0.0781,0.0695 -0.165856,0.13109 -0.264066,0.184487 -0.0981,0.0534 -0.206525,0.0984 -0.325045,0.13487 -0.23705,0.0729 -0.514834,0.11111 -0.834574,0.11111 h -1.692403 z m 27.005583,0.092 h 1.948202 c 0.486928,2e-5 0.936,0.0727 1.335318,0.21445 0.19972,0.0709 0.386653,0.159027 0.560173,0.264067 0.34712,0.21009 0.639197,0.487157 0.864547,0.828884 0.225288,0.34164 0.383761,0.747907 0.464571,1.214394 0.0404,0.23324 0.0615,0.481467 0.0615,0.744647 0,0.263187 -0.0211,0.511407 -0.0615,0.744654 -0.0808,0.466497 -0.239283,0.872717 -0.464571,1.214394 -0.11277,0.17083 -0.24203,0.325167 -0.38654,0.463537 -0.14455,0.13835 -0.30397,0.26031 -0.47749,0.36535 l -5.17e-4,5.1e-4 c -0.34698,0.20999 -0.749346,0.35257 -1.195276,0.42427 -0.22302,0.0359 -0.456717,0.0537 -0.700215,0.0537 h -1.948202 z m -17.959108,7.057927 h 0.01292 l -5.17e-4,5.2e-4 z"
       sodipodi:nodetypes="cccccccccccccccccccccccccccccccccccccccccccccccccccccccccccccccccccssssccccccscsccssccsccccccccccccccscccsccsscccccccccccccccscsscsscsccsccccccssssccccsscccccc" /><path
       id="path18"
       style="display:inline;opacity:1;fill:none;stroke:#000000;stroke-width:0.624152;stroke-linecap:butt;stroke-linejoin:miter;stroke-miterlimit:6.7;stroke-dasharray:none;paint-order:stroke fill markers"
       d="m 90.213919,86.368288 c 0.5899,0.589897 0.5899,1.546311 0,2.136208 -0.5899,0.589897 -1.54632,0.589897 -2.1362,0 -0.5899,-0.589897 -1.20326,-0.851384 -1.20326,-0.851384 0,0 -0.44989,-0.25632 -0.67485,-0.384487 -0.21942,-0.12501 -0.65827,-0.37503 -0.65827,-0.37503 0,0 0.54272,0.0302 0.81408,0.0453 0.32892,0.0183 0.98678,0.0549 0.98678,0.0549 l -2.74822,-1.296161 2.98235,0.415417 -1.47415,-0.781347 c 0,0 3.74476,0.669587 4.11174,1.036544 z"
       sodipodi:nodetypes="ssscacaccccs"
       inkscape:label="i-point" /><path
       sodipodi:type="star"
       style="display:inline;fill:none;stroke:#000000;stroke-width:2.23698;stroke-linecap:round;stroke-linejoin:round;stroke-miterlimit:3.5;stroke-dasharray:none;paint-order:normal"
       id="path21"
       inkscape:flatsided="false"
       sodipodi:sides="4"
       sodipodi:cx="609.49829"
       sodipodi:cy="0"
       sodipodi:r1="19.512674"
       sodipodi:r2="4.4488897"
       sodipodi:arg1="0"
       sodipodi:arg2="0.78539816"
       inkscape:rounded="7.2858386e-17"
       inkscape:randomized="0"
       d="M 629.01097,0 612.64413,3.1458401 609.49829,19.512674 606.35245,3.1458401 589.98562,0 l 16.36683,-3.1458401 3.14584,-16.3668339 3.14584,16.3668339 z"
       transform="matrix(0.12537345,0,0,0.12537345,37.982739,103.86292)"
       inkscape:label="uppercase-a-star" /><path
       id="path64"
       style="fill:#000000;stroke-width:0.624152;stroke-miterlimit:15.6;paint-order:stroke fill markers"
       d="m 114.30096,1.8782844 -2.96726,5.8993426 -69.636052,5.2e-4 -5.708694,-1.3993932 2.011763,5.2161902 v 16.793704 l -1.136882,4.034876 5.971211,-0.525027 h 54.48504 l 2.192631,-2.370385 2.268083,2.370385 h 3.50469 7.98763 l 1.22473,3.323812 1.31206,-3.323812 h 21.27054 v -7.183498 -2.011758 l -6.20996,-0.0563 -0.22014,-14.7421644 -2.35283,-0.1266096 h -3.76101 l -7.15047,-0.009 z m 0.0889,8.033569 0.0248,0.0548 0.0243,-0.0548 2.26859,5.2440896 0.0114,0.0264 4.18992,9.584886 1.83142,4.189386 h -1.94097 c 0.26508,1.119504 0.48059,1.942508 0.48059,1.942508 0,0 -0.7786,-0.800074 -1.59422,-1.942508 h -1.74666 l -0.84956,-2.209678 -1.36012,-3.536189 h 0.007 l -1.26555,-3.274722 v -5.1e-4 l -0.0207,-0.0522 -0.0527,-0.13539 -1.3379,3.462822 h 0.007 v 5.1e-4 l -2.20968,5.745357 h -1.44384 c -0.81565,1.142514 -1.59474,1.942508 -1.59474,1.942508 0,0 0.21607,-0.823004 0.48111,-1.942508 h -0.65577 -1.50947 -3.8623 l -3.443716,-4.565076 -1.04283,1.161164 v 3.403912 H 93.220079 V 15.182303 h 4.565095 v 4.99811 l 4.525826,-4.99811 h 5.05705 l -5.50974,6.061094 4.83123,6.441424 5.4653,-12.502518 0.0119,-0.0264 z M 86.102188,10.18987 c 0,0 3.744913,0.669667 4.111893,1.036624 0.589895,0.589897 0.589895,1.546391 0,2.136288 -0.5899,0.589897 -1.546424,0.589897 -2.136304,0 -0.589895,-0.589897 -1.203544,-0.851624 -1.203544,-0.851624 0,0 -0.449417,-0.2563 -0.674377,-0.384467 -0.21942,-0.12501 -0.658358,-0.37465 -0.658358,-0.37465 l 0.813904,0.045 c 0.32892,0.0183 0.98702,0.0553 0.98702,0.0553 l -2.748669,-1.296551 2.982763,0.415477 z m -44.678922,3.978029 3.078365,0.961694 h 5.201749 c 0.23981,0 0.47415,0.008 0.7028,0.0238 0.228552,0.0154 0.451813,0.0382 0.668693,0.0687 0.433952,0.0611 0.844196,0.151777 1.228348,0.270777 0.57626,0.17847 1.093866,0.420747 1.546676,0.720367 0.452802,0.299627 0.840409,0.656707 1.156001,1.066594 0.21042,0.273247 0.388921,0.569577 0.533301,0.887794 0.21654,0.477317 0.356495,1.003664 0.412895,1.573021 0.0182,0.18981 0.02842,0.384187 0.02842,0.583427 0,0.24842 -0.01483,0.489687 -0.04393,0.722437 -0.05811,0.465477 -0.172789,0.898494 -0.341581,1.297581 -0.16877,0.399047 -0.391436,0.764207 -0.663526,1.091924 -0.13607,0.16394 -0.283907,0.31837 -0.444417,0.463527 -0.32098,0.29024 -0.690052,0.542427 -1.103292,0.753957 l 0.782898,1.150834 0.04289,0.0636 h 0.0026 l -0.04289,-0.0641 2.639115,-0.007 5.097879,-10.66648 h 4.565613 l 3.606497,8.250102 v -8.197392 h 6.788733 c 0.287792,0 0.569813,0.0103 0.845943,0.0305 h 5.16e-4 c 0.55217,0.0404 1.08024,0.121367 1.580782,0.239777 0.25022,0.0592 0.493619,0.12767 0.729671,0.20567 1.180542,0.390077 2.178793,1.011954 2.941423,1.836568 0.152542,0.16495 0.295674,0.33843 0.428914,0.519347 0.26657,0.36184 0.494049,0.755337 0.678511,1.178214 0.27668,0.634357 0.457305,1.335844 0.5302,2.097018 0.0236,0.25373 0.03669,0.513967 0.03669,0.780827 0,0.266877 -0.01229,0.526077 -0.03669,0.779794 -0.02432,0.25373 -0.06052,0.500937 -0.10852,0.741037 -0.04772,0.240107 -0.107267,0.473157 -0.177767,0.699177 -0.07044,0.226017 -0.151813,0.444897 -0.243913,0.656284 v 0.001 c -0.03075,0.0708 -0.07005,0.13554 -0.103352,0.20464 -0.1654,0.343717 -0.35275,0.671867 -0.574642,0.973054 -0.39985,0.542757 -0.888673,1.013944 -1.454175,1.408691 -0.37703,0.26318 -0.788206,0.49254 -1.230416,0.685227 -1.105492,0.481717 -2.404271,0.737427 -3.843175,0.737427 h -6.096785 c 0.606872,1.134004 1.092439,1.984878 1.092439,1.984878 0,0 -1.382525,-0.820204 -2.704227,-2.037588 h -1.466577 l -2.209684,-5.745877 h 0.0067 l -1.265556,-3.275232 -0.07235,-0.18707 -5.16e-4,-5.1e-4 -1.337903,3.462812 h 0.0072 l -2.209684,5.745877 h -1.820044 c -1.431382,1.439041 -3.126424,2.445305 -3.126424,2.445305 0,0 0.616043,-1.078934 1.336353,-2.445305 h -0.72192 -4.95887 l -2.341459,-3.462822 h -1.259871 v 3.462822 H 44.35485 l -2.011246,0.876934 0.730188,-3.204952 v -9.935253 z m 44.910432,1.014914 h 4.643644 v 13.773762 h -4.643644 z m 37.924292,0.0346 4.64365,5.1e-4 v 10.17297 h 6.21822 v 3.600792 h -10.86187 z m -76.540018,3.493819 v 3.227172 h 1.692403 c 0.31974,0 0.597524,-0.0382 0.834574,-0.1111 0.11852,-0.0365 0.226945,-0.0815 0.325045,-0.13488 0.09821,-0.0534 0.185966,-0.114977 0.264066,-0.184477 0.07809,-0.0695 0.146439,-0.14681 0.204639,-0.23151 0.05831,-0.0848 0.106611,-0.177267 0.145211,-0.276467 0.07714,-0.19831 0.115238,-0.424517 0.115238,-0.675407 0,-0.250887 -0.03814,-0.477097 -0.115238,-0.675407 -0.03858,-0.0992 -0.08701,-0.191247 -0.145211,-0.275947 -0.11644,-0.16949 -0.272315,-0.30925 -0.468705,-0.415997 -0.1964,-0.10676 -0.433405,-0.18077 -0.711585,-0.21807 -0.139072,-0.0189 -0.288194,-0.0279 -0.448034,-0.0279 z m 27.005583,0.092 v 6.532904 h 1.948202 c 0.243494,0 0.477195,-0.0178 0.700215,-0.0537 0.44593,-0.0717 0.848296,-0.21427 1.195276,-0.424257 l 5.17e-4,-5.2e-4 c 0.17352,-0.10504 0.33294,-0.227 0.47749,-0.36535 0.14451,-0.13837 0.27377,-0.292707 0.38654,-0.463537 0.225284,-0.341637 0.383771,-0.747887 0.464571,-1.214384 0.0404,-0.233247 0.0615,-0.481467 0.0615,-0.744654 0,-0.26318 -0.0211,-0.511417 -0.0615,-0.744657 -0.08081,-0.466487 -0.239287,-0.872744 -0.464571,-1.214384 -0.22535,-0.341727 -0.517427,-0.618794 -0.864547,-0.828884 -0.17352,-0.10504 -0.360453,-0.19317 -0.560173,-0.264067 -0.399314,-0.14176 -0.848394,-0.21444 -1.335318,-0.21446 z m 39.674055,6.942181 0.3943,2.052058 2.05207,0.394287 -2.05207,0.394807 -0.3943,2.052061 -0.39429,-2.052061 -2.05207,-0.394807 2.05207,-0.394287 z" /><path
       style="display:inline;mix-blend-mode:overlay;fill:#ff0000;stroke:#000000;stroke-width:0.264583px;stroke-linecap:butt;stroke-linejoin:miter;stroke-opacity:1"
       d="m 40.910625,30.050319 -0.787191,-15.131456 1.399449,-2.361555 h 43.557845 l 3.148761,2.274085 23.353301,-0.787184 3.0613,-5.4228288 7.69696,12.9448268 0.0875,-7.521998 7.08471,-0.612247 0.0875,10.67073 5.8602,0.0874 0.0875,6.035084 -11.45799,0.2624 -2.79889,0.962114 -18.36777,-0.349857 -2.973827,-2.449028 -3.411156,2.798885 -24.140493,-1.399441 0.437327,1.486911 -4.198347,-0.437327 -4.110881,-2.536488 -3.586089,1.399444 -4.898068,1.574361 -1.486916,0.0875 z"
       id="path63"
       sodipodi:nodetypes="cccccccccccccccccccccccccc" /><circle
       style="display:inline;fill:#000000;stroke:#ff0000;stroke-width:0.624152;stroke-miterlimit:15.6;stroke-dasharray:none;paint-order:stroke fill markers"
       id="path67"
       cx="167.64821"
       cy="18.876896"
       r="9.7961416" /><path
       sodipodi:type="spiral"
       style="display:inline;opacity:0.559921;fill:none;fill-rule:evenodd;stroke:#000000;stroke-width:1.765;stroke-dasharray:none"
       id="path68"
       sodipodi:cx="560"
       sodipodi:cy="88.595039"
       sodipodi:expansion="0.28999999"
       sodipodi:revolution="12.41"
       sodipodi:radius="53.935856"
       sodipodi:argument="-29.376623"
       sodipodi:t0="0.12"
       d="m 571.37423,61.741015 c 15.22065,5.897666 22.64017,23.662356 16.71594,38.751835 -6.21627,15.83332 -24.74187,23.53983 -40.46053,17.30803 -16.39347,-6.49933 -24.36324,-25.717058 -17.85559,-42.008272 6.75511,-16.91068 26.60933,-25.124187 43.42744,-18.36567 17.39205,6.989163 25.8329,27.433846 18.84378,44.741122 -7.20547,17.84301 -28.20182,26.49722 -45.96646,19.29427 -18.26779,-7.40695 -27.12328,-28.921764 -19.72067,-47.116556 7.59585,-18.669746 29.60034,-27.715952 48.20168,-20.125798 19.05163,7.773894 28.27923,30.242842 20.51204,49.230014 -7.94248,19.41569 -30.85356,28.81638 -50.20825,20.88137 -19.7638,-8.10273 -29.33014,-31.43605 -21.23546,-51.141894 8.25558,-20.097532 31.99326,-29.822802 52.03556,-21.575712 20.41825,8.401792 30.29635,32.527673 21.90337,52.893106 -8.54203,20.72711 -33.04142,30.75248 -53.7179,22.21951 -21.0251,-8.67684 -31.19263,-33.536319 -22.52503,-54.512782 8.80672,-21.31312 34.01396,-31.618118 55.28025,-22.820765 21.59192,8.93206 32.03004,34.475727 23.10743,56.022467 -9.05324,21.86218 -34.92283,32.42941 -56.74135,23.38566 -22.12451,-9.17057 -32.8171,-35.356337 -23.65605,-57.438594 9.28434,-22.379445 35.77722,-33.193893 58.11571,-23.919079 22.62747,9.394794 33.56051,36.186313 24.17523,58.774033 -9.50215,22.86901 -36.58438,33.91759 -59.41478,24.42492 -23.10446,-9.60663 -34.26569,-36.972134 -24.66851,-60.03904 9.70839,-23.334195 37.35017,-34.605359 60.64779,-24.906371 23.55852,9.807602 34.93706,37.719065 25.1388,61.241941 -9.90442,23.77773 -38.07933,35.26123 -61.8223,25.36609 -23.99211,-9.99897 -35.57826,-38.431443 -25.58851,-62.389609 10.09138,-24.201907 38.77583,-35.888537 62.94457,-25.806304 24.40734,10.181768 36.19238,39.11289 26.01969,63.487793 -10.27023,24.60863 -39.44298,36.49011 -64.01988,26.22888 -24.80596,-10.35686 -36.782,-39.766444 -26.43406,-64.541336 10.44176,-24.999531 40.08359,-37.068341 65.05268,-26.635433 25.1895,10.525001 37.34937,40.394718 26.83314,65.554379 -10.60665,25.37602 -40.70008,37.62531 -66.04683,27.02735 -25.55926,-10.68681 -37.89639,-40.999939 -27.21821,-66.530473 10.76551,-25.739318 41.29452,-38.162797 67.00565,-27.405836 25.91635,10.842825 38.42473,41.584041 27.59038,67.472709 -10.91882,26.09048 -41.86872,38.68237 -67.93199,27.77195 -26.2618,-10.99353 -38.93588,-42.148724 -27.95066,-68.383782 11.06703,-26.430441 42.42425,-39.185409 68.82838,-28.126624 26.59648,11.139344 39.43111,42.695465 28.29994,69.266066 -11.21054,26.76002 -42.96253,39.67312 -69.69708,28.47068 -26.92116,-11.28063 -39.91157,-43.225587 -28.63896,-70.121662 7.55433,-18.024403 24.80346,-30.766789 44.24284,-32.730974"
       transform="matrix(0.2645833,0,0,0.2645833,19.157944,-4.1046784)" /><circle
       style="display:none;fill:#000000;stroke:url(#radialGradient72);stroke-width:6.04811;stroke-miterlimit:15.6;stroke-dasharray:none;stroke-opacity:0.678261;paint-order:stroke fill markers"
       id="circle71"
       cx="167.64821"
       cy="18.876896"
       r="9.7961416" /></g><g
     inkscape:groupmode="layer"
     id="layer3"
     inkscape:label="Logo"
     style="display:none"
     inkscape:highlight-color="#a200b1"
     transform="translate(-206.5915,-148.3345)"><g
       id="g7379"
       inkscape:label="stroke"
       style="display:inline"
       transform="translate(6.3499992)"><path
         d="m 461.60192,183.09088 v -3.86081 h 12.42174 v -7.13411 h -12.42174 v -3.44117 h 14.1423 v -7.46982 h -23.87825 v 29.37573 h 24.42381 v -7.46982 z"
         style="font-weight:900;font-size:112px;line-height:1.25;font-family:Montserrat;-inkscape-font-specification:'Montserrat Heavy';font-variant-ligatures:none;letter-spacing:0px;display:none;fill:none;stroke:#000000;stroke-width:2.25168;stroke-dasharray:none;paint-order:stroke markers fill"
         id="path5012" /><path
         d="m 435.83524,191.23214 c 5.74924,0 10.28149,-2.09826 13.1771,-5.87513 l -6.25282,-5.5814 c -1.72059,2.18221 -3.77688,3.44117 -6.4207,3.44117 -4.1126,0 -6.88231,-2.85365 -6.88231,-7.34394 0,-4.4903 2.76971,-7.34394 6.88231,-7.34394 2.64382,0 4.70011,1.25896 6.4207,3.44116 l 6.25282,-5.58139 c -2.89561,-3.77688 -7.42786,-5.87514 -13.1771,-5.87514 -9.4422,0 -16.36647,6.33676 -16.36647,15.35931 0,9.02254 6.92427,15.3593 16.36647,15.3593 z"
         style="font-weight:900;font-size:112px;line-height:1.25;font-family:Montserrat;-inkscape-font-specification:'Montserrat Heavy';font-variant-ligatures:none;letter-spacing:0px;display:none;fill:none;stroke:#000000;stroke-width:2.25168;stroke-dasharray:none;paint-order:stroke markers fill"
         id="path5010" /></g><g
       id="g11710"
       style="display:inline;fill:#ffffff;fill-opacity:1"
       inkscape:label="fill-header"
       transform="translate(6.3499992)"><path
         d="m 435.83523,191.23214 c 5.74925,0 10.2815,-2.09826 13.17711,-5.87515 l -6.25284,-5.58139 c -1.72058,2.1822 -3.77688,3.44116 -6.42069,3.44116 -4.11261,0 -6.88232,-2.85365 -6.88232,-7.34394 0,-4.49028 2.76971,-7.34392 6.88232,-7.34392 2.64381,0 4.70011,1.25896 6.42069,3.44116 l 6.25284,-5.58139 c -2.89561,-3.77688 -7.42786,-5.87514 -13.17711,-5.87514 -9.4422,0 -16.36648,6.33676 -16.36648,15.35929 0,9.02255 6.92428,15.35932 16.36648,15.35932 z"
         style="font-weight:900;font-size:112px;line-height:1.25;font-family:Montserrat;-inkscape-font-specification:'Montserrat Heavy';font-variant-ligatures:none;letter-spacing:0px;display:none;fill:#ffffff;fill-opacity:1;stroke:none;stroke-width:2.25168;stroke-dasharray:none;paint-order:stroke markers fill"
         id="path6586" /><path
         d="m 461.6019,183.09086 v -3.86081 h 12.42174 v -7.13409 H 461.6019 v -3.44117 h 14.14232 v -7.46982 h -23.87826 v 29.37573 h 24.42381 v -7.46984 z"
         style="font-weight:900;font-size:112px;line-height:1.25;font-family:Montserrat;-inkscape-font-specification:'Montserrat Heavy';font-variant-ligatures:none;letter-spacing:0px;display:none;fill:#ffffff;fill-opacity:1;stroke:none;stroke-width:2.25168;stroke-dasharray:none;paint-order:stroke markers fill"
         id="path6588" /></g></g></svg>
